<?xml version="1.0" standalone="no"?>
<!DOCTYPE svg PUBLIC "-//W3C//DTD SVG 1.1//EN" "http://www.w3.org/Graphics/SVG/1.1/DTD/svg11.dtd" >
<!--
2013-9-30: Created.
-->
<svg>
<metadata>
Created by iconfont
</metadata>
<defs>

<font id="iconfont" horiz-adv-x="1024" >
  <font-face
    font-family="iconfont"
    font-weight="500"
    font-stretch="normal"
    units-per-em="1024"
    ascent="896"
    descent="-128"
  />
    <missing-glyph />
    
    <glyph glyph-name="x" unicode="x" horiz-adv-x="1001"
d="M281 543q-27 -1 -53 -1h-83q-18 0 -36.5 -6t-32.5 -18.5t-23 -32t-9 -45.5v-76h912v41q0 16 -0.5 30t-0.5 18q0 13 -5 29t-17 29.5t-31.5 22.5t-49.5 9h-133v-97h-438v97zM955 310v-52q0 -23 0.5 -52t0.5 -58t-10.5 -47.5t-26 -30t-33 -16t-31.5 -4.5q-14 -1 -29.5 -0.5
t-29.5 0.5h-32l-45 128h-439l-44 -128h-29h-34q-20 0 -45 1q-25 0 -41 9.5t-25.5 23t-13.5 29.5t-4 30v167h911zM163 247q-12 0 -21 -8.5t-9 -21.5t9 -21.5t21 -8.5q13 0 22 8.5t9 21.5t-9 21.5t-22 8.5zM316 123q-8 -26 -14 -48q-5 -19 -10.5 -37t-7.5 -25t-3 -15t1 -14.5
t9.5 -10.5t21.5 -4h37h67h81h80h64h36q23 0 34 12t2 38q-5 13 -9.5 30.5t-9.5 34.5q-5 19 -11 39h-368zM336 498v228q0 11 2.5 23t10 21.5t20.5 15.5t34 6h188q31 0 51.5 -14.5t20.5 -52.5v-227h-327z" />
    

    
    <glyph glyph-name="xinjian" unicode="&#58894;" d="M900.999 599.041l-142.257 142.261c-30.961 30.956-92.133 56.314-135.973 56.314h-477.924c-43.78 0-79.655-35.875-79.655-79.655v-860.266c0-43.841 35.875-79.654 79.655-79.654l732.818-0c43.841 0 79.654 35.879 79.654 79.654l0 605.373c0 43.78-25.362 105.016-56.318 135.973zM855.943 553.99c3.113-3.112 6.22-6.94 9.242-11.267h-162.761v162.765c4.323-3.017 8.15-6.129 11.263-9.241l142.256-142.257zM893.595-142.304c0-8.645-7.345-15.931-15.931-15.931h-732.818c-8.686 0-15.931 7.345-15.931 15.931v860.266c0 8.656 7.34 15.931 15.931 15.931h477.924c4.789 0 10.203-0.62 15.931-1.711v-253.182h253.183c1.086-5.724 1.711-11.073 1.711-15.931l0-605.373z"  horiz-adv-x="1024" />

    
    <glyph glyph-name="iconfontsanjiaoxing" unicode="&#58997;" d="M1020.303667-140.185394 3.69531-140.185394l508.304178 880.370789L1020.303667-140.185394zM115.03968-75.904369l793.918594 0L511.999488 611.620273 115.03968-75.904369z"  horiz-adv-x="1024" />

    
    <glyph glyph-name="iconfontwubianxing" unicode="&#58999;" d="M825.790771-182.857263l-627.585636 0.001023L4.270432 413.987101 511.999488 782.858286l507.729057-368.870162L825.790771-182.857263zM246.561404-116.302451l530.874121-0.001023 164.050892 504.870626L511.999488 700.593677 82.512559 388.566128 246.561404-116.302451z"  horiz-adv-x="1024" />

    
    <glyph glyph-name="iconfontlingxing" unicode="&#59005;" d="M511.999488-206.512009 5.466726 300.001023 511.999488 806.512009l506.532763-506.510986L511.999488-206.512009zM97.817754 300.001023l414.180711-414.164764 414.180711 414.164764L511.999488 714.164764 97.817754 300.001023z"  horiz-adv-x="1024" />

    
    <glyph glyph-name="xiangpica" unicode="&#59077;" d="M930.360889 431.549867 656.816356 705.0944c-35.544178 35.544178-93.184 35.544178-128.728178 0L93.639111 270.645333c-35.544178-35.544178-35.544178-93.184 0-128.728178l199.202133-199.179378 0.2048-0.182044-6.280533 6.280533c79.985778-79.985778 209.646933-79.985778 289.632711 0l-1.069511-1.069511 0.045511 0.045511 355.009422 354.986667C965.905067 338.365867 965.905067 396.005689 930.360889 431.549867zM335.030044-31.275378l-124.290844 121.878756c0 0 0 0 0-0.022756l-88.200533 88.223289c-17.772089 17.772089-17.772089 46.603378 0 64.352711l80.918756 78.552178 343.563378-341.174044C493.681778-72.758756 388.323556-84.568889 335.030044-31.275378zM896.750933 332.654222 654.7456 88.259556l0 0.022756-75.548444-75.548444L235.633778 353.930667 553.187556 673.851022c17.772089 17.749333 46.580622 17.749333 64.352711 0l279.210667-276.844089C914.500267 379.212089 914.500267 350.403556 896.750933 332.654222z"  horiz-adv-x="1024" />

    
    <glyph glyph-name="hexagon" unicode="&#58887;" d="M113.793 114.602v348.929c0 33.682 18.085 65.075 47.295 81.967l302.129 174.466c29.215 16.886 65.478 16.886 94.586 0l302.236-174.466c29.207-16.892 47.29-48.284 47.29-81.967v-348.929c0-33.682-18.080-65.074-47.29-81.967l-302.236-174.465c-29.211-16.889-65.473-16.889-94.586 0l-302.129 174.465c-29.207 16.893-47.295 48.284-47.295 81.967v0zM879.862 458.273c0 27.172-14.647 52.421-38.063 66.009l-293.13 169.211c-23.51 13.489-52.713 13.489-76.222 0l-293.126-169.21c-23.513-13.587-38.060-38.836-38.060-66.009v-338.419c0-27.171 14.642-52.418 38.060-66.007l293.126-169.21c23.51-13.583 52.713-13.583 76.222 0l293.034 169.21c23.513 13.587 38.060 38.836 38.060 66.007v338.418h0.099zM891.333 463.531z"  horiz-adv-x="1024" />

    
    <glyph glyph-name="xianfanxiang" unicode="&#59367;" d="M959.69595 384 758.383992 564.26869 758.383992 436.749388 656.363434 436.749388 656.363434 331.250612 758.383992 331.250612 758.383992 203.732333ZM265.613962 564.26869 64.303027 384 265.613962 203.732333 265.613962 331.250612 366.270453 331.250612 366.270453 436.749388 265.613962 436.749388ZM421.18311 436.749388l25.293059 0 0-105.498776-25.293059 0 0 105.498776ZM473.235626 436.749388l25.293059 0 0-105.498776-25.293059 0 0 105.498776ZM525.315772 436.749388l25.293059 0 0-105.498776-25.293059 0 0 105.498776ZM577.369312 436.749388l25.293059 0 0-105.498776-25.293059 0 0 105.498776Z"  horiz-adv-x="1024" />

    
    <glyph glyph-name="xianfanxiang1" unicode="&#59415;" d="M959.69595 384 758.383992 564.26869 758.383992 436.749388 656.363434 436.749388 656.363434 331.250612 758.383992 331.250612 758.383992 203.732333ZM265.613962 564.26869 64.303027 384 265.613962 203.732333 265.613962 331.250612 366.270453 331.250612 366.270453 436.749388 265.613962 436.749388ZM421.18311 436.749388l25.293059 0 0-105.498776-25.293059 0 0 105.498776ZM473.235626 436.749388l25.293059 0 0-105.498776-25.293059 0 0 105.498776ZM525.315772 436.749388l25.293059 0 0-105.498776-25.293059 0 0 105.498776ZM577.369312 436.749388l25.293059 0 0-105.498776-25.293059 0 0 105.498776Z"  horiz-adv-x="1024" />

    
    <glyph glyph-name="fangdajing" unicode="&#58886;" d="M462.204897 117.987461c-178.729637 0-324.266291 145.469116-324.335876 324.283688 0.069585 178.89746 145.606239 324.468906 324.403414 324.503698 178.864714 0 324.403414-145.538701 324.470953-324.43616C786.743388 263.491369 641.204687 117.987461 462.204897 117.987461L462.204897 117.987461zM462.272435 732.518648c-159.933549-0.034792-290.077631-130.227993-290.14517-290.2475 0.067538-159.918199 130.210597-290.010093 290.077631-290.010093 160.053276 0 290.280246 130.125663 290.280246 290.077631C752.417605 602.323401 622.258173 732.518648 462.272435 732.518648L462.272435 732.518648zM270.230608 442.43897l-34.273595 0c0 124.797307 101.586676 226.334865 226.316445 226.334865l0-34.258245C356.406293 634.516614 270.230608 548.340929 270.230608 442.43897L270.230608 442.43897zM869.24745 5.083018c-4.348028 0-8.763594 1.657756-12.111852 5.006014L666.361647 200.847633c-6.700609 6.681166-6.700609 17.526165 0 24.224728 6.698562 6.681166 17.526165 6.681166 24.224728 0l190.773951-190.756555c6.681166-6.698562 6.681166-17.526165 0-24.226774C878.010021 6.740774 873.66404 5.083018 869.24745 5.083018L869.24745 5.083018z"  horiz-adv-x="1024" />

    
    <glyph glyph-name="lingxing" unicode="&#58988;" d="M511.999488-122.512009 5.466726 384.001023 511.999488 890.512009l506.532763-506.510986L511.999488-122.512009zM97.817754 384.001023l414.180711-414.164764 414.180711 414.164764L511.999488 798.164764 97.817754 384.001023z"  horiz-adv-x="1024" />

    
    <glyph glyph-name="icon00096" unicode="&#58898;" d="M512.602 832.535c-247.377 0-447.931-200.543-447.931-447.931 0-247.378 200.553-447.932 447.931-447.932 247.378 0 447.931 200.554 447.931 447.932 0 247.387-200.553 447.931-447.931 447.931zM512.602-7.336c-216.453 0-391.94 175.467-391.94 391.94 0 216.463 175.487 391.94 391.94 391.94 216.454 0 391.942-175.477 391.942-391.94-0.001-216.472-175.488-391.94-391.942-391.94zM355.944 227.907c-73.417 73.452-85.285 184.971-32.597 270.836v-35.925h31.532v94.6h-94.599v-31.533h43.078c-68.075-99.412-56.712-233.241 30.296-320.267 48.422-48.422 113.524-73.546 179.024-73.546 46.577 0.019 93.363 12.724 134.406 38.818l-16.89 26.626c-86.383-54.908-201.733-42.126-274.251 30.391zM691.38 562.363c-82.846 82.855-214.686 97.462-313.431 34.729l16.907-26.626c86.383 54.897 201.713 42.117 274.233-30.402 73.459-73.449 85.311-184.981 32.617-270.835v35.933h-31.533v-94.599h94.581v31.533h-43.083c68.086 99.405 56.755 233.23-30.291 320.267z"  horiz-adv-x="1024" />

    
    <glyph glyph-name="baocun" unicode="&#58923;" d="M820.088844 833.490318 200.36233 833.490318c-76.06235 0-137.718595-61.656245-137.718595-137.719618l0-619.72549c0-76.05928 61.656245-137.714502 137.718595-137.714502l619.726513 0c76.058257 0 137.714502 61.655222 137.714502 137.714502L957.803345 695.770699C957.803345 771.834072 896.146077 833.490318 820.088844 833.490318L820.088844 833.490318zM269.219581 764.632043l482.010989 0 0-344.296487c0-38.028105-30.832216-68.856227-68.862367-68.856227L338.077855 351.479329c-38.029128 0-68.857251 30.828123-68.857251 68.856227L269.220604 764.632043 269.219581 764.632043zM888.945071 76.045209c0-38.029128-30.828123-68.857251-68.856227-68.857251L200.36233 7.187959c-38.028105 0-68.861344 30.828123-68.861344 68.857251L131.500986 695.770699c0 38.029128 30.832216 68.862367 68.861344 68.862367l0-413.152714c0-38.029128 30.828123-68.857251 68.857251-68.857251l482.010989 0c38.029128 0 68.857251 30.828123 68.857251 68.857251L820.08782 764.632043c38.028105 0 68.856227-30.832216 68.856227-68.862367L888.944048 76.045209 888.945071 76.045209zM647.942135 420.33658c19.013029 0 34.42709 15.419178 34.42709 34.431184L682.369226 661.343609c0 19.013029-15.413038 34.42709-34.42709 34.42709-19.016099 0-34.43016-15.413038-34.43016-34.42709l0-206.576869C613.511975 435.754734 628.925013 420.33658 647.942135 420.33658L647.942135 420.33658zM647.942135 420.33658"  horiz-adv-x="1024" />

    
    <glyph glyph-name="coupon" unicode="&#58895;" d="M194.605873 636.665707c-24.649669 0-49.61018 4.530349-74.149135 13.479837C32.495252 682.123996-17.848437 758.227589 5.847038 823.404944 22.146485 868.196226 70.091871 896 130.982597 896c24.627254 0 49.544792-4.508553 74.060837-13.435626 40.549482-14.745491 74.837939-39.950216 96.578461-70.973359 23.451137-33.51024 29.846406-69.863125 18.010062-102.37434C303.331271 664.447066 255.431211 636.665707 194.605873 636.665707L194.605873 636.665707zM130.982597 850.519915c-41.259958 0-72.816979-16.344897-82.409821-42.659855-14.478738-39.817087 25.560891-92.470657 87.429341-114.988158 19.297512-7.017446 39.550457-10.72611 58.603755-10.72611 41.171659 0 72.705769 16.322482 82.29985 42.638059 6.617068 18.164987 2.153841 39.728293-12.548058 60.714129-16.432453 23.450518-43.014784 42.74803-74.858992 54.340036C170.244629 846.833047 150.014718 850.519915 130.982597 850.519915L130.982597 850.519915zM776.363114 437.180266c-3.28711 0-6.66128 0.710475-9.838295 2.242759L294.582034 666.246103c-11.303457 5.440332-16.078144 19.031378-10.637812 30.356755 5.419898 11.281042 18.964999 16.122231 30.356879 10.637069l471.945138-226.822954c11.302961-5.439837 16.077524-19.030883 10.637688-30.356755C792.97526 441.932538 784.84696 437.180266 776.363114 437.180266L776.363114 437.180266zM131.071515 360.644344 131.071515 360.644344c-60.935432 0-108.92503 27.835849-125.224477 72.62713-11.83684 32.533631-5.441075 68.886515 18.008328 102.37434 21.719346 31.000851 56.007802 56.184399 96.578956 70.929891 24.53846 8.926949 49.455998 13.457422 74.104429 13.457422 60.848372 0 108.79252-27.802536 125.093206-72.550349 23.717271-65.199771-26.582207-141.369743-114.521401-173.41544C180.593396 365.163795 155.676973 360.644344 131.071515 360.644344L131.071515 360.644344zM194.538751 574.552919c-19.053298 0-39.306243-3.70854-58.559544-10.703571-31.866128-11.592006-58.47137-30.890138-74.880911-54.318859-14.678865-20.962925-19.14395-42.526231-12.525519-60.713509 9.592842-26.337374 41.19457-42.703943 82.498738-42.703943l0 0c19.031997 0 39.240236 3.70854 58.471246 10.68128 61.846778 22.539792 101.863372 75.259369 87.362962 115.121163C267.311643 558.209384 235.755736 574.552919 194.538751 574.552919L194.538751 574.552919zM304.46454 547.239059c-8.593941 0-16.83283 4.884658-20.6745 13.212465-5.263859 11.391879-0.288426 24.894627 11.124507 30.179662L766.859809 808.615366c11.435967 5.285035 24.91568 0.288426 30.177805-11.125745 5.263239-11.392374 0.289045-24.894008-11.124011-30.180158L313.968464 549.32516C310.88272 547.904828 307.639821 547.239059 304.46454 547.239059L304.46454 547.239059zM1055.439385-128 1009.960538-128c-12.570473 0-22.741281 10.170931-22.741281 22.741281 0 12.567873 10.170808 22.738804 22.741281 22.738804l45.478846 0c12.570349 0 22.740042-10.170931 22.740042-22.738804C1078.179427-117.829069 1068.009734-128 1055.439385-128L1055.439385-128zM918.99913-128l-45.480085 0c-12.569111 0-22.738928 10.170931-22.738928 22.741281 0 12.567873 10.169817 22.738804 22.738928 22.738804l45.480085 0c12.570349 0 22.741281-10.170931 22.741281-22.738804C941.740411-117.829069 931.569479-128 918.99913-128L918.99913-128zM782.55999-128l-45.481323 0c-12.567873 0-22.738804 10.170931-22.738804 22.741281 0 12.567873 10.170931 22.738804 22.738804 22.738804l45.481323 0c12.567996 0 22.740042-10.170931 22.740042-22.738804C805.300033-117.829069 795.127987-128 782.55999-128L782.55999-128zM646.119736-128l-45.480085 0c-12.56973 0-22.740662 10.170931-22.740662 22.741281 0 12.567873 10.170931 22.738804 22.740662 22.738804l45.480085 0c12.569111 0 22.738804-10.170931 22.738804-22.738804C668.85854-117.829069 658.688847-128 646.119736-128L646.119736-128zM509.678862-128l-45.480085 0c-12.567996 0-22.739423 10.170931-22.739423 22.741281 0 12.567873 10.171427 22.738804 22.739423 22.738804l45.480085 0c12.56973 0 22.741281-10.170931 22.741281-22.738804C532.420143-117.829069 522.248592-128 509.678862-128L509.678862-128zM373.239722-128l-45.480085 0c-12.569111 0-22.740662 10.170931-22.740662 22.741281 0 12.567873 10.171551 22.738804 22.740662 22.738804l45.480085 0c12.567996 0 22.739423-10.170931 22.739423-22.738804C395.979145-117.829069 385.807718-128 373.239722-128L373.239722-128zM1146.022211-124.046502c-9.993096 0-19.142092 6.617811-21.917615 16.743912-3.310144 12.125265 3.84105 24.606077 15.943281 27.936779 11.725011 3.197573 22.474032 8.660444 31.978576 16.300067 9.770554 7.86105 24.072818 6.306971 31.978576-3.508413 7.860927-9.771792 6.283936-24.117525-3.509652-31.979814-14.389325-11.547176-30.689391-19.851948-48.455239-24.693138C1150.041097-123.781607 1148.020137-124.046502 1146.022211-124.046502L1146.022211-124.046502zM238.309955-117.651233c-3.198811 0-6.462886 0.667503-9.571046 2.132045-16.678648 7.728045-31.357513 18.65354-43.615164 32.422421-8.372018 9.3703-7.55021 23.760739 1.820709 32.111581 9.39383 8.304896 23.739563 7.55021 32.111581-1.821205 8.12768-9.14912 17.831731-16.344897 28.869178-21.450982 11.370578-5.33098 16.322482-18.83249 11.037446-30.24666C255.098079-112.765337 246.8821-117.651233 238.309955-117.651233L238.309955-117.651233zM1227.720937-25.403118c-0.621558 0-1.26615 0-1.908389 0.088299-12.525519 1.021935-21.80752 11.99226-20.763913 24.517779 0.177836 2.308766 0.266134 4.663478 0.266134 7.016951l0 36.552392c0 12.569111 10.169693 22.740042 22.741157 22.740042 12.567996 0 22.737689-10.170931 22.737689-22.740042l0-36.552392c0-3.641542-0.131767-7.239369-0.442607-10.793851C1249.37378-16.430719 1239.42539-25.403118 1227.720937-25.403118L1227.720937-25.403118zM173.84196-6.749578c-12.567873 0-22.739423 10.170931-22.739423 22.740042l0 45.480085c0 12.570349 10.171551 22.740042 22.739423 22.740042 12.569111 0 22.740662-10.169693 22.740662-22.740042l0-45.480085C196.582622 3.421353 186.411071-6.749578 173.84196-6.749578L173.84196-6.749578zM1228.055927 110.99243c-12.571464 0-22.741157 10.170931-22.741157 22.740042l0 45.480085c0 12.569111 10.169693 22.738804 22.741157 22.738804 12.567996 0 22.737689-10.169693 22.737689-22.738804l0-45.480085C1250.793616 121.163362 1240.623923 110.99243 1228.055927 110.99243L1228.055927 110.99243zM173.84196 129.690676c-12.567873 0-22.739423 10.170931-22.739423 22.738928l0 45.481323c0 12.569111 10.171551 22.740042 22.739423 22.740042 12.569111 0 22.740662-10.170931 22.740662-22.740042l0-45.481323C196.582622 139.861608 186.411071 129.690676 173.84196 129.690676L173.84196 129.690676zM1228.055927 247.432685c-12.571464 0-22.741157 10.170931-22.741157 22.740042L1205.31477 315.651697c0 12.569111 10.169693 22.741281 22.741157 22.741281 12.567996 0 22.737689-10.17217 22.737689-22.741281l0-45.47897C1250.793616 257.603616 1240.623923 247.432685 1228.055927 247.432685L1228.055927 247.432685zM173.84196 266.131055c-12.567873 0-22.739423 10.169693-22.739423 22.740042l0 40.106751c0 12.567996 10.171551 22.738804 22.739423 22.738804 12.569111 0 22.740662-10.170808 22.740662-22.738804l0-40.106751C196.582622 276.300748 186.411071 266.131055 173.84196 266.131055L173.84196 266.131055zM1228.055927 383.883342c-12.571464 0-22.741157 10.170931-22.741157 22.740662l0 45.480085c0 12.568492 10.169693 22.739423 22.741157 22.739423 12.567996 0 22.737689-10.170931 22.737689-22.739423l0-45.480085C1250.793616 394.054273 1240.623923 383.883342 1228.055927 383.883342L1228.055927 383.883342zM1223.590966 519.879131c-9.860091 0-18.920788 6.440595-21.82944 16.344278-3.398319 11.614297-9.083608 22.274401-16.92051 31.689407-8.040991 9.638168-6.730011 23.983901 2.929333 32.022663 9.638787 8.039381 23.961485 6.684933 32.023282-2.930943 11.83622-14.212604 20.453072-30.357869 25.626774-47.989474 3.531448-12.058763-3.39708-24.6945-15.434295-28.225824C1227.85518 520.167557 1225.700101 519.879131 1223.590966 519.879131L1223.590966 519.879131zM1123.460004 599.713556c-0.445084 0-0.910726 0.022415-1.354572 0.044211-1.821329 0.111209-3.642657 0.15604-5.485658 0.15604l-38.66289 0c-12.567873 0-22.740042 10.170808-22.740042 22.740042 0 12.568492 10.17217 22.740042 22.740042 22.740042l38.66289 0c2.730692 0 5.440951-0.088918 8.149971-0.244338 12.547315-0.73351 22.09545-11.503707 21.363798-24.028607C1145.421211 609.039768 1135.406319 599.713556 1123.460004 599.713556L1123.460004 599.713556zM986.997954 599.913807l-45.480085 0c-12.570349 0-22.741281 10.170808-22.741281 22.740042 0 12.568492 10.171055 22.740042 22.741281 22.740042l45.480085 0c12.569111 0 22.738804-10.171551 22.738804-22.740042C1009.736758 610.084614 999.567065 599.913807 986.997954 599.913807L986.997954 599.913807zM850.557699 599.913807l-45.47897 0c-12.570349 0-22.741281 10.170808-22.741281 22.740042 0 12.568492 10.170931 22.740042 22.741281 22.740042l45.47897 0c12.569111 0 22.740042-10.171551 22.740042-22.740042C873.297741 610.084614 863.12681 599.913807 850.557699 599.913807L850.557699 599.913807zM714.117321 599.913807l-45.480085 0c-12.569111 0-22.738804 10.170808-22.738804 22.740042 0 12.568492 10.169693 22.740042 22.738804 22.740042l45.480085 0c12.567996 0 22.740042-10.171551 22.740042-22.740042C736.857363 610.084614 726.685317 599.913807 714.117321 599.913807L714.117321 599.913807z"  horiz-adv-x="1251" />

    
    <glyph glyph-name="qianjin" unicode="&#58899;" d="M548.211182 631.085831l0-279.66607c0 0-512.514443 91.809293-477.934351-479.412948C70.276832-127.993186-270.33878 560.467491 548.211182 631.085831zM548.211182 892.340983 548.211182 97.434946 1026.145533 494.87093Z"  horiz-adv-x="1027" />

    
    <glyph glyph-name="cuxixiantiao" unicode="&#58909;" d="M1237.333333 810.666667 42.666667 810.666667C19.114667 810.666667 0 829.781333 0 853.333333 0 876.885333 19.114667 896 42.666667 896L1237.333333 896C1260.885333 896 1280 876.885333 1280 853.333333 1280 829.781333 1260.885333 810.666667 1237.333333 810.666667ZM85.333333 554.666667 1194.666667 554.666667C1241.770667 554.666667 1280 516.437333 1280 469.333333 1280 422.229333 1241.770667 384 1194.666667 384L85.333333 384C38.229333 384 0 422.229333 0 469.333333 0 516.437333 38.229333 554.666667 85.333333 554.666667ZM85.333333 128 1194.666667 128C1241.770667 128 1280 89.770667 1280 42.666667L1280-42.666667C1280-89.770667 1241.770667-128 1194.666667-128L85.333333-128C38.229333-128 0-89.770667 0-42.666667L0 42.666667C0 89.770667 38.229333 128 85.333333 128Z"  horiz-adv-x="1280" />

    
    <glyph glyph-name="wujiaoxing" unicode="&#59012;" d="M769.899392-34.271268l-0.854421 0.47168-256.146733 141.457692-257.00615-141.929372 0.157293 0.963347 48.901645 299.488147L97.781888 478.280022l286.365044 43.709765L512.899438 795.984818l0.430708-0.913381 128.321598-273.081651 286.35725-43.709765-0.645562-0.660552L720.847849 266.180226 769.899392-34.271268zM99.751952 477.621469l206.212588-211.12026-0.037974-0.236839L257.143441-32.495472l255.754998 141.236841 0.229844-0.124915L768.650239-32.495472l-48.815703 298.99648 0.167886 0.170884 206.034708 210.949376-285.027951 43.507302-0.106928 0.228845L512.899438 793.753331l-128.109342-272.624561-0.249831-0.038574L99.751952 477.621469zM235.646016-62.986799l5.254837 32.154199 47.652092 291.834336L65.910497 488.942793l307.826494 46.985544 139.136266 296.093049 14.339278-30.401788 124.848952-265.691261 307.830491-46.987542-21.552387-22.05045-201.094058-205.888408 52.893138-323.975545-28.51067 15.735132-248.729761 137.361469L235.646016-62.986799zM512.842477 126.245502l7.619834-4.14519 227.947851-125.883451-44.978305 275.488619 5.61919 5.721121 185.116091 189.531897-263.592684 40.23572-3.580572 7.670799L512.899438 757.661801l-117.693804-250.460588-8.330352-1.282131L131.623343 466.958698l190.721691-195.260014-1.262744-7.866666L277.384717-3.782939 512.842477 126.245502z"  horiz-adv-x="1024" />

    
    <glyph glyph-name="rectangle" unicode="&#59183;" d="M682.9 27.3 342.5 27.3c-38.1 0-73.6 20.5-92.7 53.5L79.6 375.6c-19.1 33-19.1 74 0 107l170.2 294.8c19.1 33 54.6 53.5 92.7 53.5l340.4 0c38.1 0 73.6-20.5 92.7-53.5l170.2-294.8c19.1-33 19.1-74 0-107L775.6 80.8C756.6 47.8 721 27.3 682.9 27.3zM342.5 785.9c-22.1 0-42.6-11.9-53.6-31L118.7 460.1c-11-19.1-11-42.8 0-61.9l170.2-294.8c11-19.1 31.6-31 53.6-31l340.4 0c22.1 0 42.6 11.9 53.6 31l170.2 294.8c11 19.1 11 42.8 0 61.9L736.6 754.9c-11 19.1-31.6 31-53.6 31L342.5 785.9z"  horiz-adv-x="1024" />

    
    <glyph glyph-name="line" unicode="&#58963;" d="M930.263 834.019l31.756-31.756-868.272-868.272-31.756 31.756 868.272 868.272z"  horiz-adv-x="1025" />

    
    <glyph glyph-name="wubianxing" unicode="&#58979;" d="M232.644571-4.31912 77.017094 476.243891l441.188234 296.076252 428.777577-293.535383L767.867482-1.758808 232.644571-4.31912zM177.964204 441.304124 294.611901 81.261001l413.951917 1.978051 135.221728 362.854145L517.704932 669.289582 177.964204 441.304124z"  horiz-adv-x="1024" />

    
    <glyph glyph-name="unie60d" unicode="&#58939;" d="M959.008 489.984l-308 47.008-139.008 295.008-139.008-295.008-308-47.008 223.008-228-52.992-324 276.992 152.992 276.992-152.992-52.992 324zM512 156l-208-116.992 40 235.008-179.008 182.016 242.016 32 104.992 224 104-224 240.992-34.016-176.992-180.992 36.992-235.008z"  horiz-adv-x="1024" />

    
    <glyph glyph-name="baocun1" unicode="&#58900;" d="M798.525224 793.322479l-28.652574 0-515.746324 0-28.652574 0c-67.538209 0-122.796744-55.258535-122.796744-122.796744l0-573.051471c0-67.538209 55.258535-122.796744 122.796744-122.796744l573.051471 0c67.538209 0 122.796744 55.258535 122.796744 122.796744l0 573.051471C921.321968 738.063945 866.063433 793.322479 798.525224 793.322479zM720.753953 744.203782l0-311.085084-417.508929 0 0 311.085084L720.753953 744.203782zM872.20327 97.474264c0-19.544125-7.701402-38.008662-21.684882-51.993165-13.983479-13.983479-32.448016-21.684882-51.993165-21.684882l-573.051471 0c-19.544125 0-38.009685 7.701402-51.993165 21.684882-13.983479 13.984503-21.684882 32.44904-21.684882 51.993165l0 573.051471c0 19.544125 7.701402 38.008662 21.684882 51.993165 13.983479 13.983479 32.448016 21.684882 51.993165 21.684882l28.652574 0 0-360.203782 515.746324 0 0 360.203782 28.652574 0c19.544125 0 38.009685-7.701402 51.993165-21.684882 13.983479-13.983479 21.684882-32.44904 21.684882-51.993165L872.20327 97.474264zM611.246887 459.4279c13.563924 0 24.559349 10.995425 24.559349 24.559349l0 171.915441c0 13.563924-10.995425 24.559349-24.559349 24.559349s-24.559349-10.995425-24.559349-24.559349l0-171.915441C586.687538 470.423325 597.682963 459.4279 611.246887 459.4279z"  horiz-adv-x="1024" />

    
    <glyph glyph-name="xinjian1" unicode="&#58910;" d="M625.823883 745.719298l272.397914 0c17.362029 0 31.431889 14.07106 31.431889 31.428491 0 17.366625-14.069861 31.431889-31.431889 31.431889L625.823883 808.579679c-17.362029 0-31.428491-14.065264-31.428491-31.431889C594.396591 759.790358 608.461855 745.719298 625.823883 745.719298zM856.316809 686.315574 646.779076 686.315574c-60.101451 0-96.331487 28.65817-107.314841 54.282796-22.570297 52.67009-102.557066 92.387561-186.037267 92.387561L164.843628 832.985932c-86.661843 0-157.15385-70.48621-157.15385-157.149253l0-586.677832c0-86.650451 70.497603-157.143457 157.15385-157.143457l691.472981 0c86.656047 0 157.15365 70.493006 157.15365 157.143457L1013.470259 529.170918C1013.470459 615.821369 942.971657 686.315574 856.316809 686.315574zM950.604282 89.157647c0-51.992949-42.294724-94.287673-94.287673-94.287673L164.843628-5.130026c-51.99175 0-94.293469 42.294724-94.293469 94.287673L70.550159 675.836679c0 51.992949 42.30152 94.288872 94.293469 94.288872l188.58334 0c60.090059 0 117.282283-28.669562 128.258841-54.283995 22.570497-52.667691 81.597277-92.387561 165.093467-92.387561l209.537534 0c51.992949 0 94.287673-42.294724 94.287673-94.281877L950.604482 89.157647zM689.886449 340.976114l-147.028914 0 0 147.297932c0 17.921849-14.404434 32.583708-32.008898 32.583708-17.604664 0-32.008898-14.663058-32.008898-32.583708l0-147.299131-147.56695 0c-17.921849 0-32.583708-14.403235-32.583708-32.007699 0-17.604664 14.663058-32.007699 32.583708-32.007699l147.568149 0 0-147.299131c0-17.921849 14.404434-32.583708 32.008898-32.583708 17.604664 0 32.008898 14.663058 32.008898 32.583708l0 147.299131 147.027915 0c17.921849 0 32.583708 14.403235 32.583708 32.007699C722.470357 326.57168 707.807299 340.976114 689.886449 340.976114z"  horiz-adv-x="1029" />

    
    <glyph glyph-name="wenzi" unicode="&#58908;" d="M886.3744-128 137.659733-128c-75.912533 0-137.659733 61.7472-137.659733 137.6256L0 758.340267C0 834.218667 61.781333 896 137.659733 896l748.714667 0c75.912533 0 137.6256-61.781333 137.6256-137.659733l0-748.714667C1024-66.2528 962.286933-128 886.3744-128L886.3744-128zM132.8128 826.914133c-35.1232 0-63.6928-28.5696-63.6928-63.6928l0-758.442667c0-35.089067 28.5696-63.658667 63.6928-63.658667l758.442667 0c35.089067 0 63.658667 28.5696 63.658667 63.658667L954.914133 763.1872c0 35.1232-28.5696 63.6928-63.658667 63.6928L132.8128 826.88 132.8128 826.914133zM137.659733 821.213867M204.970667 691.131733l614.4 0 0-68.130133-614.4 0 0 68.130133ZM478.1056 691.165867l68.130133 0 0-614.4-68.130133 0 0 614.4ZM831.214933 76.8l-26.7264 67.345067-107.793067 0L669.9008 76.8l-48.5376 0 101.888 259.413333 54.6816 0L880.810667 76.8 831.214933 76.8zM718.677333 199.68l63.7952 0-31.914667 80.349867L718.677333 199.68z"  horiz-adv-x="1025" />

    
    <glyph glyph-name="wujiaoxing1" unicode="&#58918;" d="M913.22368 460.45184c12.02176 11.71456 16.65024 25.45664 12.6976 37.66272-3.97312 12.20608-15.79008 20.5824-32.41984 23.01952l-209.03936 30.37184c-17.32608 2.51904-39.34208 18.49344-47.104 34.2016l-93.47072 189.41952c-7.41376 15.07328-19.06688 23.71584-31.90784 23.71584s-24.45312-8.64256-31.88736-23.71584l-93.4912-189.41952c-7.76192-15.70816-29.75744-31.68256-47.104-34.2016L130.47808 521.13408c-16.62976-2.43712-28.44672-10.81344-32.41984-23.01952-3.95264-12.20608 0.67584-25.94816 12.6976-37.66272l151.26528-147.43552c12.53376-12.24704 20.95104-38.11328 17.98144-55.37792l-35.69664-208.1792c-2.84672-16.56832 1.47456-30.39232 11.85792-37.94944 5.09952-3.70688 11.18208-5.55008 17.79712-5.55008 6.90176 0 14.37696 2.02752 21.95456 5.98016l186.96192 98.304c15.50336 8.15104 42.7008 8.15104 58.22464 0l186.96192-98.28352c14.90944-7.84384 29.3888-7.9872 39.75168-0.43008 10.36288 7.53664 14.70464 21.38112 11.85792 37.94944l-35.69664 208.15872c-2.99008 17.28512 5.44768 43.15136 17.98144 55.3984L913.22368 460.45184zM713.68704 252.43648l35.71712-208.1792c0.79872-4.64896 0.3072-7.04512 0.512-7.59808-0.96256 0-3.3792 0.3072-7.55712 2.47808l-186.96192 98.304c-24.35072 12.77952-62.48448 12.75904-86.81472 0l-186.96192-98.304c-4.17792-2.17088-6.59456-2.47808-7.0656-2.82624-0.3072 0.90112-0.77824 3.29728 0.02048 7.94624l35.71712 208.1792c4.62848 27.11552-7.14752 63.3856-26.8288 82.57536l-151.26528 147.43552c-3.3792 3.29728-4.38272 5.50912-4.87424 5.85728 0.75776 0.53248 2.88768 1.7408 7.5776 2.41664l209.01888 30.37184c27.21792 3.95264 58.0608 26.37824 70.22592 51.01568l93.47072 189.41952c2.10944 4.23936 3.8912 5.89824 4.07552 6.4512 0.75776-0.55296 2.56-2.21184 4.64896-6.4512l93.4912-189.41952c12.16512-24.63744 43.008-47.06304 70.20544-51.01568l209.03936-30.37184c4.7104-0.67584 7.29088-1.4336 7.3728-1.86368-0.28672-0.90112-1.29024-3.11296-4.68992-6.41024l-151.26528-147.43552C720.83456 315.82208 709.03808 279.552 713.68704 252.43648"  horiz-adv-x="1024" />

    
    <glyph glyph-name="wenzi1" unicode="&#59095;" d="M753.310951 670.515502 270.689049 670.515502c-18.562774 0-37.124526-18.562774-37.124526-37.124526 0-18.562774 18.562774-37.124526 37.124526-37.124526l204.186426 0 0-461.656405c0-22.275329 18.561751-37.124526 37.124526-37.124526 22.275329 0 37.124526 14.85022 37.124526 37.124526L549.124526 596.266451 753.310951 596.266451c18.562774 0 37.124526 18.561751 37.124526 37.124526C790.435477 651.952728 771.873726 670.515502 753.310951 670.515502L753.310951 670.515502z"  horiz-adv-x="1024" />

    
    <glyph glyph-name="fangdajing-copy" unicode="&#58880;" d="M1008.951-53.319l-184.236 184.539c29.696 36.061 54.544 75.754 72.421 119.391 22.726 54.846 35.151 115.147 35.151 177.872 0 62.119-12.425 120.601-34.24 175.447l-0.909 2.425c-23.332 55.756-56.967 106.361-99.088 148.783l-2.119 2.121c-42.122 42.725-93.937 77.271-150.602 100.906v0c-55.149 22.727-115.147 35.757-177.872 35.758-128.177 0-244.537-52.725-328.775-136.663-43.028-42.726-77.27-93.936-101.21-150.905-22.423-55.452-35.151-115.451-35.151-177.872 0-61.815 12.727-121.51 34.544-175.751l0.607-2.119c23.634-57.27 58.18-108.785 101.209-151.207v0c43.028-43.028 93.936-77.27 150.903-100.604v0c54.847-23.029 115.147-35.151 177.873-35.151s123.027 12.121 177.872 35.151c43.635 17.878 83.633 42.423 119.391 72.118l184.539-184.539c16.667-16.364 43.332-16.364 59.695 0 16.967 16.665 16.967 43.633-0.001 60.3v0zM735.932 160.004v0 0l-0.909-0.607c-34.544-34.848-76.361-62.724-122.421-82.42-44.24-17.878-93.632-28.484-145.146-28.484-51.815 0-100.906 10.605-145.45 28.484v0c-46.363 19.696-88.179 48.179-123.027 83.027v0c-35.151 35.758-63.332 76.966-82.724 123.633l-0.607 1.515c-18.181 44.241-27.877 93.027-27.877 143.329 0 51.815 9.998 100.603 28.483 145.45 19.393 46.060 47.271 87.876 82.724 122.42 68.785 69.392 163.327 111.814 268.475 111.814 51.513 0 100.906-10.605 145.146-28.483 46.665-19.696 88.179-47.574 123.33-83.33l2.119-1.819c33.938-33.938 61.209-75.452 80.3-120.601l0.909-2.425c17.575-44.242 27.876-92.118 27.876-143.025 0-51.513-10.303-100.906-28.787-144.843-19.087-47.274-47.569-89.089-82.417-123.634v0zM350.187 705.743v0c-18.181-7.577-35.453-17.273-50.908-27.575-15.757-11.515-30.908-23.332-44.241-36.665v-0.303c-13.938-13.636-26.666-28.787-36.969-44.543v-0.303c-11.21-16.364-20.604-33.028-27.877-50.603-5.455-13.333 0.607-28.18 13.939-33.635 12.727-5.455 27.877 0.607 33.331 13.635 5.757 14.545 13.333 29.089 22.423 42.423v-0.607c9.091 13.635 19.696 25.757 30.909 37.574 11.21 11.212 23.939 21.818 37.574 30.303 12.727 9.393 27.271 16.667 41.818 22.727 12.727 6.060 19.090 20.909 13.939 33.938-6.059 13.332-20.603 18.786-33.936 13.635v0zM742.9 454.237v0c-14.241 0-25.452-11.211-25.452-25.757 0-33.028-6.667-64.846-19.393-95.755v-1.819c-12.423-28.484-30.301-55.149-54.24-79.39-23.939-23.635-51.513-41.212-80.908-53.937-30.301-12.425-63.028-19.392-95.451-19.392-14.241 0-25.757-10.908-25.757-25.15 0-13.94 11.515-25.757 25.757-25.757 39.087 0 78.482 7.879 115.451 23.028 35.151 14.544 68.483 36.363 97.268 64.847 28.484 28.483 49.696 61.815 64.847 96.966v0.908c15.453 36.969 23.332 76.057 23.332 115.451 0 14.547-11.515 25.758-25.456 25.758v0z"  horiz-adv-x="1024" />

    
    <glyph glyph-name="yuan" unicode="&#58881;" d="M515.674181 802.872996c-229.626841 0-415.777495-186.150654-415.777495-415.777495 0-229.630934 186.150654-415.778518 415.777495-415.778518 229.626841 0 415.778518 186.147584 415.778518 415.778518C931.451676 616.723366 745.301022 802.872996 515.674181 802.872996zM513.000282 0.699174c-212.763778 0-385.243061 172.479283-385.243061 385.245108 0 212.762755 172.479283 385.241015 385.243061 385.241015 212.762755 0 385.243061-172.47826 385.243061-385.241015C898.243343 173.177434 725.763037 0.699174 513.000282 0.699174z"  horiz-adv-x="1024" />

    
    <glyph glyph-name="qianbi" unicode="&#58882;" d="M548.230182 88.316253c-52.902107-80.549059-209.583183-147.116963-277.120706-102.760203l-33.185148 21.795447c-67.5365 44.35676-68.69349 214.588958-15.790359 295.136992L501.146816 727.311821C554.048923 807.86088 651.683555 837.200314 719.221079 792.843554l81.523798-53.54306c67.5365-44.35676 79.400259-145.611851 26.498152-226.16091L548.230182 88.316253zM255.432768-15.761691l121.512662-6.261058 174.950262 87.841169-326.906107 236.670069-47.12637-168.663605zM330.377078-44.252324c-26.407026 0-48.556738 5.751164-65.818421 17.090694l-33.723711 22.148687c-35.852369 23.549362-58.173069 76.993105-61.238581 146.626522-2.821828 64.239589 12.07468 129.507159 38.889213 170.325372l279.012846 424.817188c37.331883 56.844065 98.462956 92.146608 159.551026 92.146608 29.215544 0 57.136897-8.195178 80.757932-23.707041l82.837442-54.408242c75.263762-49.428064 89.917609-160.551362 32.673204-247.718816L564.305182 78.24634c-43.611372-66.396916-150.73435-122.498664-233.928104-122.498664zM647.04945 799.638057c-51.34273 0-103.1073-30.251716-135.087334-78.943607L232.94927 295.877262c-23.613867-35.952709-36.681716-94.56912-34.116883-152.977683 2.607836-59.245077 20.577023-105.393636 48.063225-123.448829L280.619323-2.697938c12.417681-8.152175 29.158206-12.288672 49.756731-12.288671 72.063097 0 171.897036 52.093238 209.465436 109.294639l279.012846 424.824355c48.384725 73.677764 37.495704 166.62505-24.271201 207.192411l-82.837443 54.408242c-18.833347 12.367511-41.204217 18.905019-64.696242 18.905019zM803.491961 447.2884c-13.768186-20.963028-37.535636-29.677316-53.08743-19.46406L451.590766 624.077559c-15.55077 10.213256-16.996496 35.486841-3.228311 56.450894 13.768186 20.963028 37.535636 29.677316 53.087431 19.46406l298.813764-196.25322c15.55077-10.21428 16.996496-35.487865 3.228311-56.450893zM765.225271 408.916249c-8.302686 0-16.204009 2.307838-22.849025 6.673685L443.558385 611.843154c-22.649367 14.882173-25.90737 48.584383-7.423168 76.720751 12.288672 18.712528 31.637033 30.336698 50.492905 30.336698 8.302686 0 16.204009-2.315005 22.856192-6.680852l298.810693-196.247076c22.649367-14.87603 25.914538-48.577215 7.430336-76.713584-12.296863-18.718672-31.645224-30.342842-50.500072-30.342842zM486.627098 689.635913c-7.352521 0-18.254851-5.301678-26.028189-17.140864-9.960356-15.161694-8.509511-31.236693-0.971667-36.188203l298.810693-196.254244c7.209177-4.723183 22.277697-0.779177 32.823716 15.268178 9.960356 15.161694 8.502344 31.243861 0.971667 36.188203l-298.810693 196.247076c-1.894188 1.244021-4.180524 1.879853-6.795527 1.879854zM683.028781 720.17534s-18.946998 12.444302-45.602829 2.830019c-26.654807-9.614283-36.80151-19.901259-36.80151-19.901259M600.737069 681.434591c-5.736829 0-11.446014 2.193162-15.704353 6.594846-8.281185 8.566849-8.40917 21.9992-0.035836 30.487209 2.279169 2.307838 15.154527 14.382517 44.983378 25.135361 35.967044 12.96034 62.23175-3.243669 65.103749-5.129666 10.131345-6.65935 12.946006-20.269858 6.294847-30.401203-6.566177-10.002336-19.941191-12.875358-30.015199-6.537507-0.971667 0.549826-11.474683 6.201673-26.493033 0.772009-20.605692-7.423169-28.908378-14.946678-28.986193-15.01835-4.258339-3.930696-9.717696-5.902699-15.14736-5.902699zM522.865471 42.079639c-0.736174 0-1.47849 0.05017-2.228998 0.163822-7.974019 1.221495-13.46102 8.666165-12.261027 16.647351 0.12901 0.928664 5.858672 43.290895-18.991025 59.616747-24.264034 15.925512-64.610236-10.645336-65.024909-10.924856-6.65935-4.522501-15.754523-2.84333-20.327196 3.814996a14.6047 14.6047 0 0 0-2.30067 11.045675 14.552482 14.552482 0 0 0-0.607164 6.887677c0.136177 0.950166 5.858672 43.290895-18.991025 59.60958-24.456525 16.076023-64.595901-10.631001-64.99624-10.896188-6.65935-4.594173-15.761691-2.8935-20.348697 3.757659a14.539172 14.539172 0 0 0-2.550499 9.174013 14.585246 14.585246 0 0 0-2.02934 9.910186c0.057338 0.386005 6.01635 43.169053-18.983858 59.588078-24.29987 15.954181-64.62457-10.652503-65.032077-10.924857-6.65935-4.529669-15.754523-2.850497-20.327195 3.814997-4.558337 6.65935-2.879166 15.740189 3.764826 20.312861 2.293503 1.578831 56.529733 38.260547 97.655111 11.260691 27.543539-18.09103 32.580031-50.985394 32.83805-71.190747 20.063033 8.6805 50.585054 16.390356 76.070584-0.343001 26.750028-17.568848 32.280033-49.09223 32.809382-69.397924 20.077367 8.373334 49.670725 15.232342 74.441582-1.036172 40.753708-26.77153 32.244197-85.959269 31.866383-88.467787-1.10682-7.235798-7.344329-12.422801-14.445998-12.422801zM268.752492-51.457405c-9.617355-14.643608-32.060921-16.895132-50.128402-5.028301-18.06748 11.865807-24.917273 33.35716-15.299918 47.999744l25.329899 38.566689c9.617355 14.643608 32.060921 16.895132 50.128401 5.028301 18.06748-11.865807 24.917273-33.35716 15.299919-47.999744l-25.329899-38.566689zM311.357384 173.650951c-4.136497 0-8.31702 1.164158-12.024509 3.601005-10.138512 6.65935-12.953173 20.262691-6.302014 30.394036l232.149615 353.461596c6.652183 10.152847 20.269858 12.946006 30.394036 6.302014 10.138512-6.65935 12.953173-20.262691 6.302014-30.394036L329.726911 183.55397c-4.21636-6.422833-11.224855-9.903019-18.369527-9.903019zM420.309021 102.095701c-4.136497 0-8.31702 1.164158-12.024509 3.601005-10.138512 6.65935-12.953173 20.262691-6.302014 30.394036l232.142448 353.468763c6.652183 10.152847 20.284192 12.946006 30.394036 6.302015 10.138512-6.65935 12.953173-20.262691 6.302014-30.394036L438.677524 111.99872c-4.215336-6.423857-11.223831-9.903019-18.368503-9.903019z"  horiz-adv-x="1024" />

    
    <glyph glyph-name="xiangpica1" unicode="&#58888;" d="M930.36 515.55L656.817 789.094c-35.544 35.545-93.184 35.545-128.728 0L93.64 354.645c-35.544-35.544-35.544-93.184 0-128.728l199.202-199.18 0.205-0.181-6.28 6.28c79.985-79.986 209.646-79.986 289.632 0l-1.07-1.07 0.046 0.046L930.384 386.8c35.521 35.567 35.521 93.207-0.023 128.75zM335.03 52.725L210.74 174.603v-0.022l-88.201 88.223c-17.772 17.772-17.772 46.603 0 64.353l80.918 78.552 343.564-341.174c-53.34-53.294-158.697-65.104-211.991-11.81z m561.72 363.93L654.747 172.26v0.022l-75.549-75.548L235.634 437.93l317.554 319.92c17.772 17.75 46.58 17.75 64.352 0l279.21-276.844c17.75-17.795 17.75-46.603 0-64.353z"  horiz-adv-x="1024" />

    
    <glyph glyph-name="fangdajing1" unicode="&#58883;" d="M453.213 67.906c-209.132 0-379.423 170.212-379.503 379.447 0.080 209.325 170.371 379.658 379.582 379.696 209.286 0 379.583-170.291 379.658-379.623 0-209.263-170.291-379.521-379.737-379.521v0 0zM453.293 786.965c-187.139-0.039-339.418-152.374-339.5-339.612 0.081-187.124 152.359-339.337 339.419-339.337 187.278 0 339.653 152.254 339.653 339.412-0.074 187.198-152.374 339.539-339.573 339.539v0 0zM453.293 786.965zM228.588 447.547h-40.108c0 146.028 118.865 264.832 264.813 264.832v-40.085c-123.876 0.006-224.705-100.83-224.705-224.746v0 0zM228.588 447.547zM929.489-64.198c-5.084 0-10.25 1.936-14.168 5.858l-223.226 223.203c-7.839 7.816-7.839 20.506 0 28.345 7.839 7.822 20.512 7.822 28.35 0l223.221-223.204c7.816-7.834 7.816-20.505 0-28.343-3.921-3.92-9.005-5.857-14.175-5.857v0 0zM929.489-64.198z"  horiz-adv-x="1024" />

    
    <glyph glyph-name="huaban" unicode="&#58941;" d="M613.08 433c-33.13 0-60-26.86-60-60 0-33.13 26.87-60 60-60s60 26.87 60 60c0 33.14-26.87 60-60 60z m127.5-74.59c0-269.99-111-259.49-228.58-308.98-32.92-13.859-75.35-55.46-111.9-82.5-90-66.569-148.8-86.54-226.49-39C73.11-10.57 28.5 163.11 28.5 358.41c0 247.69 159.4 448.48 356.04 448.48 196.63 0 356.04-200.79 356.04-448.48zM613.08 529.4c0 33.14-26.86 60-59.99 60-33.14 0-60-26.86-60-60 0-33.13 26.86-60 60-60 33.13 0 59.99 26.87 59.99 60z m-119.99 120c0 33.13-26.86 59.99-60 59.99-33.13 0-59.99-26.86-59.99-59.99 0-33.14 26.86-60 59.99-60 33.14 0 60 26.86 60 60zM359.6 116.92c0 62.13-50.37 112.5-112.5 112.5s-112.49-50.37-112.49-112.5 50.36-112.49 112.49-112.49 112.5 50.36 112.5 112.49zM330 619c0 33.13-26.86 60-60 60-33.13 0-60-26.87-60-60 0-33.14 26.87-60 60-60 33.14 0 60 26.86 60 60z m-88.9-149.6c0 33.14-26.86 60-59.99 60-33.14 0-60-26.86-60-60 0-33.13 26.86-59.99 60-59.99 33.13 0 59.99 26.86 59.99 59.99zM682.66 896c352.28-4 333.33-246.6 333.33-246.6H782.32C782.32 831 682.66 896 682.66 896zM1015.99 625.4L953.85-128H839.5l-57.18 753.4z"  horiz-adv-x="1024" />

    
    <glyph glyph-name="tianchong1" unicode="&#59008;" d="M946.116165 778.028145v-49.773614M478.407927-49.525718L94.246501 334.636732l62.105476 62.104453h644.1119l62.105477-62.104453zM478.387461-64.208115l-7.396457 7.314593-391.435087 391.516951 7.314593 7.396458 391.516951 391.516951 7.396458-7.314593 391.516951-391.597792-7.314593-7.396458-391.598816-391.43611zM108.978017 334.623429l369.409444-369.409444 369.490286 369.409444-369.490286 369.490286-369.409444-369.490286zM379.796002 832.211185L533.246907 678.759257l-14.791892-14.791891L365.003088 817.419294zM944.444083 132.529665c0-37.926798-30.745235-68.672032-68.672032-68.672032s-68.672032 30.745235-68.672033 68.672032 68.672032 130.073474 68.672033 130.073474 68.672032-92.146677 68.672032-130.073474z"  horiz-adv-x="1024" />

    
    <glyph glyph-name="cancel" unicode="&#58927;" d="M152.631 557.525c-2.801-2.801-4.552-6.697-4.552-10.986 0.021-4.29 1.772-8.185 4.596-10.986l273.422-271.047c1.422-1.423 3.654-1.926 5.624-1.116 1.991 0.853 3.173 2.757 3.173 4.771l0 163.789c88.835 0 315.026-2.035 315.026-241.72 0-125.511-86.384-230.21-201.22-254.437 184.499 25.803 327.218 187.052 327.218 384.28 0 366.4-379.81 369.464-441.024 369.464l0 137.483c0 2.057-1.203 3.984-3.173 4.793-1.991 0.832-4.202 0.306-5.647-1.116l-273.444-273.171z"  horiz-adv-x="1024" />

    
    <glyph glyph-name="tupian" unicode="&#58950;" d="M843.3 25.7H361.1l-205.8 0.4c-0.6 0-1.2 0-1.8 0.1-24.4 2.4-47 13.8-63.6 32C73.2 76.5 64 100.3 64 125.1V642.8c0 54.9 44.6 99.5 99.5 99.5h679.8c54.9 0 99.5-44.6 99.5-99.5v-222.5c0-0.5-1.9-50.8 15.2-84 4.6-9 1.1-20-7.8-24.6-9-4.6-20-1.1-24.6 7.8-20.9 40.5-19.5 96-19.3 102V642.9c0 34.7-28.2 62.9-62.9 62.9H163.5c-34.7 0-62.9-28.2-62.9-62.9v-517.7c0-32.2 23.9-58.9 55.7-62.5l204.9-0.4h482.1c34.7 0 62.9 28.2 62.9 62.9l-0.4 92.1c-0.1 1.7-1.6 19.2-19.2 41.8 0 0.1-0.1 0.1-0.1 0.2l-21.3 28-115.3 152.4c-0.4 0.5-38.3 50-84.8 44.8-37.7-4.2-74.7-44.4-106.9-116.1-17.3-38.5-34.1-67.1-51.2-87.5-17.3-20.6-35.1-32.9-54.3-37.7-42.7-10.5-79.7 18.7-118.8 49.5l-5 3.9c-45.8 36-67.6 27.7-155.6-58.6-7.2-7.1-18.8-7-25.8 0.3-7.1 7.2-7 18.8 0.3 25.8 45.9 45 76.2 71.5 105.3 82.8 32.8 12.8 63.2 6.2 98.5-21.6l5-3.9c33.3-26.3 62.1-48.9 87.5-42.7 25.2 6.2 52.4 41.4 80.9 104.7 38.5 85.5 84.4 131.7 136.4 137.5 67.3 7.4 115.8-56.4 117.8-59.1l115.1-152.3 21.2-27.9c25.8-33.1 26.9-60.6 26.9-63.6v-0.1l0.4-92.5c0-55.1-44.7-99.7-99.5-99.7zM311.7 463.6c-41.6 0-75.4 33.8-75.4 75.4s33.8 75.4 75.4 75.4 75.4-33.8 75.4-75.4-33.8-75.4-75.4-75.4z m0 114.4c-21.5 0-38.9-17.5-38.9-38.9 0-21.5 17.5-38.9 38.9-38.9s38.9 17.5 38.9 38.9-17.4 38.9-38.9 38.9z"  horiz-adv-x="1024" />

    
    <glyph glyph-name="huaban1" unicode="&#58884;" d="M398.6432 310.49728c0.36864-41.13408-32.75776-74.77248-73.94816-75.02336-41.16992-0.32768-74.68032 32.76288-74.90048 73.89696-0.36352 41.14944 32.74752 74.66496 73.80992 75.04384 41.18528 0.27136 74.82368-32.86016 75.03872-73.91744z m-36.41344 148.4544c-41.1392-0.29184-74.79296 32.78848-75.05408 74.0096-0.32256 41.0624 32.68096 74.61376 73.88672 74.88 41.04704 0.37888 74.79296-32.66048 74.93632-73.82528 0.4352-41.21088-32.768-74.68544-73.76896-75.06432z m297.216 149.48864c0.14336-41.0624-32.80384-74.79296-73.93792-75.06432-41.1648-0.34304-74.77248 32.76288-75.02336 73.8816-0.39936 41.18528 32.6912 74.7008 73.93792 75.02848 40.98048 0.23552 74.65984-32.80384 75.02336-73.84576zM212.54656 18.27328c170.82368-14.14144 109.65504 167.296 267.70432 168.97024l68.4544-57.09312c17.0496-206.21312-235.19232-252.25216-336.15872-111.87712z m523.81184 264.98048c53.13536 83.37408 217.73312 363.008 217.73312 363.008 13.09696 23.18336-16 47.40608-36.33152 30.29504 0 0-244.7616-212.79232-316.94848-280.23808-57.0624-53.33504-57.2928-77.696-75.776-165.61152l62.53056-52.1216c82.92864 34.048 106.79296 38.69184 148.79232 104.66816z m-470.05696-179.00544c-77.60384 67.7888-127.36 166.86592-128.21504 277.3504-1.6384 205.184 164.096 373.51424 369.43872 375.18848 142.93504 0.76288 241.3056-70.9376 241.92512-128.3584 22.58944 19.80416 43.71456 38.27712 61.93664 54.20544-37.6064 82.77504-155.72992 150.63552-304.47616 148.65408-246.70208-2.01728-445.27104-203.51488-443.30496-450.29376 0.85504-108.42624 40.31488-207.42656 105.12384-284.3136 35.67104-18.32448 79.05792-12.24704 97.57184 7.56736z m476.5696 70.99904c39.424-73.39008-50.33472-125.47072-132.01408-148.66944-11.3408-33.97632-29.89568-64.08704-51.16928-86.05696 195.69664 21.9648 337.4592 160.27648 233.33376 293.78048-17.09056-25.49248-33.38752-44.59008-50.1504-59.05408z"  horiz-adv-x="1024" />

    
    <glyph glyph-name="tupian1" unicode="&#58972;" d="M511.68 785.6h400.896c45.056 0 82.048-29.824 91.52-73.6 1.472-6.848 2.112-13.952 2.112-20.992 0.128-204.672 0.128-409.408 0.064-614.144-0.064-53.504-40.448-94.4-93.888-94.4-266.88-0.128-533.76-0.128-800.64 0-53.44 0-93.952 40.896-93.952 94.336V691.008c0 54.144 40.64 94.592 94.912 94.592h398.976m0.704-61.632H283.712l-170.368 0.064a32.768 32.768 0 0 1-27.072-11.904c-5.824-7.104-6.656-15.296-6.656-24.128v-607.808c0-2.432 0-4.736 0.128-6.976 0.512-9.792 5.12-17.408 12.928-23.232 6.848-5.056 14.912-5.824 23.168-5.824 243.136 0.128 486.336 0.128 729.408 0.128 22.016 0 44.032 0 65.984-0.128a32.64 32.64 0 0 1 22.016 7.296c8.704 7.36 11.328 17.024 11.328 28.032V687.232c0 24.768-11.904 36.608-36.416 36.672l-395.776 0.064m0 0zM781.312 383.808c-20.608 0-41.344 0.384-62.08-0.128-35.456-0.896-65.472-14.848-92.608-37.12-20.224-16.64-40.64-33.344-62.272-48a216.32 216.32 0 0 0-92.096-36.224 153.024 153.024 0 0 0-22.336-1.728c-28.16-0.256-56.384-0.704-84.544 0a129.344 129.344 0 0 1-67.776-17.728 182.976 182.976 0 0 1-44.672-34.88c-19.328-20.8-39.04-41.28-58.88-61.568a30.656 30.656 0 0 0-43.264-1.088 30.272 30.272 0 0 0-1.856 42.752c25.344 26.816 50.368 54.144 77.312 79.168a198.656 198.656 0 0 0 135.552 54.976c27.328 0.128 54.656 0.512 81.984-0.128 19.968-0.384 38.464 4.032 56.384 12.16a263.936 263.936 0 0 1 71.104 46.08c27.904 25.792 58.56 47.232 95.936 56.96a238.08 238.08 0 0 0 52.8 8.192c42.944 1.216 85.888 0.576 128.768 0.384 13.632 0 23.872-6.208 29.376-18.88a29.312 29.312 0 0 0-5.504-32.768 30.72 30.72 0 0 0-24.64-10.176h-66.688v-0.256m0 0zM326.656 600.192c34.24 0 61.952-27.84 61.824-61.888a61.824 61.824 0 0 0-123.648 0.064 61.76 61.76 0 0 0 61.824 61.824m0 0z"  horiz-adv-x="1024" />

    
    <glyph glyph-name="xuanzhuan" unicode="&#58922;" d="M705.949348 576.522878C705.949348 589.247234 695.640662 599.568504 682.931823 599.568504 670.222987 599.568504 659.914301 589.247234 659.914301 576.522878 659.914301 563.798521 670.222987 553.477251 682.931823 553.477251 695.640662 553.477251 705.949348 563.758511 705.949348 576.522878L705.949348 576.522878ZM736.679338 576.522878C736.679338 546.819376 712.637813 522.749749 682.971787 522.749749 653.304508 522.749749 629.264232 546.819376 629.264232 576.522878 629.264232 606.225129 653.304508 630.255996 682.971787 630.255996 712.637813 630.255996 736.679338 606.18637 736.679338 576.522878L736.679338 576.522878ZM513.349931 892.148685C395.822205 892.148685 284.552117 852.40023 194.331473 779.678726L79.439922 894.74932 0 497.301036 397.003551 576.759185 269.128429 704.790443C339.125073 758.012187 423.91602 787.241823 513.349931 787.241823 736.600662 787.241823 918.222049 605.398678 918.222049 381.875356 918.222049 344.174903 913.02837 306.829533 902.838321 270.823244 897.171358 250.968396 890.010849 231.547404 881.511649 212.992877L976.729911 169.185931C987.431961 192.586641 996.481872 217.128886 1003.64238 242.104984L1003.64238 242.143744C1016.469852 287.447302 1023.000977 334.445027 1023.000977 381.875356 1023.000977 663.269056 794.360508 892.148685 513.349931 892.148685L513.349931 892.148685ZM743.563862 48.325173 803.213111-37.869621C840.710242-11.909534 874.548449 18.975506 903.899787 53.919039L823.594459 121.361756C800.300958 93.588726 773.388489 69.046481 743.563862 48.325173L743.563862 48.325173ZM283.764137-73.79714C324.488117-94.400922 367.847024-109.409587 412.584587-118.47055L433.240662-15.611687C397.671649-8.482447 363.322693 3.375448 331.0592 19.7632L283.764137-73.79714ZM112.726166 322.548371 9.049912 307.38092C12.787512 281.853436 18.531902 256.365965 26.125737 231.704945L126.222985 262.589985C120.241327 282.089746 115.678283 302.259667 112.726166 322.548371L112.726166 322.548371ZM83.610849 107.377091C108.163122 68.967715 137.711766 33.985421 171.549971 3.336688L241.861307 81.100673C214.948839 105.446617 191.419317 133.298418 171.943337 163.868381L83.610849 107.377091ZM647.245423-0.879342 681.869111-99.876008C638.90357-114.964693 594.048623-124.183192 548.368232-127.295201L541.206479-22.624649C577.523511-20.142793 613.1712-12.814754 647.245423-0.879342L647.245423-0.879342ZM321.646892 442.985652C309.281467 429.688656 303.328531 412.723261 303.328531 391.630615 303.328531 370.539213 309.281467 354.031432 321.646892 341.652161 333.095711 328.812777 349.125058 322.393711 369.732433 322.393711 389.884004 322.393711 406.370404 328.812777 418.277528 341.652161 430.184649 354.490294 436.137583 371.914551 436.137583 393.005949 436.137583 414.557458 429.726347 431.522853 417.819222 443.902124 405.453799 456.741511 389.425701 463.160578 370.191984 463.160578 350.040414 463.160578 333.554014 456.741511 321.646892 442.985652M459.494773 460.868768C479.643849 432.898187 490.17856 393.923674 490.17856 343.485108 490.17856 290.297123 479.186792 247.196602 457.661563 214.18104 435.222229 181.167981 405.453799 164.203839 367.901721 164.203839 304.243887 164.203839 268.522521 194.007364 260.279321 253.156807L308.823165 253.156807C315.235653 221.519081 335.385975 205.470163 368.358775 205.470163 390.79936 205.470163 408.660667 216.934212 422.39975 238.942085 435.222229 260.034736 442.09177 286.628729 442.09177 318.267703 442.09177 320.100651 441.633468 321.934848 441.633468 324.227908L439.801508 324.227908C430.64295 310.014435 418.735829 299.466863 404.996745 292.13132 391.714716 285.711004 376.601975 282.043859 359.657272 282.043859 327.601077 282.043859 301.49657 292.588933 282.261604 313.222722 263.48494 333.398897 254.326384 359.534027 254.326384 391.630615 254.326384 424.644923 264.858599 451.238916 286.840882 472.331567 308.823165 493.881827 335.844277 504.428152 368.358775 504.428152 408.202365 504.428152 438.427849 490.213431 459.494773 460.868768M590.014689 417.767121C581.77024 397.592195 578.107568 369.622864 578.107568 334.315495 578.107568 299.466985 581.77024 271.497658 590.014689 250.86387 601.005208 221.519208 619.78187 206.386762 646.801732 206.386762 673.363292 206.386762 692.59701 221.519208 703.588778 250.86387 711.374922 271.497658 715.495899 299.466985 715.495899 334.315495 715.495899 369.622864 711.374922 397.592195 703.588778 417.767121 692.59701 447.570645 673.363292 462.244229 646.801732 462.244229 619.78187 462.244229 601.005208 447.570645 590.014689 417.767121M736.104522 455.823909C755.339489 425.561522 764.956348 385.211671 764.956348 334.315495 764.956348 283.878183 755.339489 243.069469 736.104522 212.807078 715.038843 180.710494 685.270417 164.203962 646.801732 164.203962 608.33305 164.203962 578.56462 180.710494 557.498941 212.807078 538.263978 243.069469 528.64587 283.41932 528.64587 334.315495 528.64587 385.670533 538.263978 426.020385 557.498941 455.823909 578.56462 488.379358 608.33305 504.428277 646.801732 504.428277 685.270417 504.428277 715.038843 488.379358 736.104522 455.823909"  horiz-adv-x="1024" />

    
    <glyph glyph-name="juxing" unicode="&#58905;" d="M0 784v-800h1024V784H0z m974-750H50V734h924v-700z"  horiz-adv-x="1024" />

    
    <glyph glyph-name="xiguan" unicode="&#58928;" d="M868.304 748.464c-29.834 30.001-71.139 48.569-116.78 48.569-0.17 0-0.34-0-0.51-0.001-44.246 0-85.846-17.224-117.102-48.504l-134.712-134.736-55.76 55.76c-5.446 5.45-12.971 8.821-21.284 8.821s-15.838-3.371-21.284-8.821c-5.45-5.446-8.821-12.971-8.821-21.284 0-8.313 3.371-15.838 8.821-21.284l76.808-76.808c0.080-0.080 0.136-0.176 0.216-0.264l7.008-7-291.904-291.968c-22.76-22.607-36.847-53.92-36.847-88.523 0-7.118 0.596-14.097 1.741-20.89l-46.062-45.251c-13.293-13.209-21.52-31.503-21.52-51.717 0-0.060 0-0.12 0-0.18-0-0.067-0-0.156-0-0.246 0-20.182 8.215-38.446 21.485-51.629 13.222-13.311 31.53-21.548 51.762-21.548 0.068 0 0.136 0 0.205 0l0.013-0c0.067-0 0.146-0 0.225-0 20.176 0 38.432 8.219 51.603 21.492l45.741 45.677c6.311-1.134 13.575-1.783 20.991-1.784 32.489 0 64.329 12.84 88.377 36.864l291.936 291.952 7.016-7.016c0.112-0.112 0.24-0.184 0.36-0.296l76.72-76.712c5.441-5.46 12.968-8.838 21.284-8.838s15.843 3.378 21.283 8.837c5.451 5.447 8.822 12.972 8.822 21.285 0 8.313-3.371 15.838-8.821 21.284l-55.76 55.752 134.752 134.72c64.592 64.56 64.592 169.656 0 234.288zM328.144 115.8c-16.744-16.712-40.736-22.84-63.376-16.76-3.634 1.682-7.886 2.663-12.368 2.663-6.895 0-13.248-2.322-18.318-6.228-6.953-5.338-12.715-11.991-16.957-19.607l-44.116-40.877c-2.361-2.363-5.624-3.824-9.229-3.824-0.001 0-0.002 0-0.004 0l-0.024-0c-7.287 0.021-13.187 5.934-13.187 13.224 0 3.636 1.468 6.93 3.843 9.321l56.079 56.103c0.392 0.344 4.288 4.608 5.2 5.944 0.408 0.576 2.144 3.568 2.576 4.512 0.504 1.064 1.624 4.32 1.768 4.864 0.416 1.552 0.904 5 0.92 5.16 0.096 0.902 0.151 1.949 0.151 3.009 0 3.986-0.775 7.791-2.183 11.273-6.384 22.662-0.232 46.934 16.64 63.798l291.928 291.96 92.6-92.6-291.944-291.936zM825.736 556.76l-134.76-134.728-149.2 149.184 134.712 134.736c39.832 39.824 109.36 39.792 149.248-0.056 41.096-41.144 41.096-108.040 0-149.136z"  horiz-adv-x="1024" />

    
    <glyph glyph-name="tupian2" unicode="&#59075;" d="M192 448a2 2 0 1 1 128 0 2 2 0 1 1-128 0zM714.688 640H181.312C116.64 640 64 587.36 64 522.688v-405.376C64 52.64 116.64 0 181.312 0h533.376C779.36 0 832 52.64 832 117.312V522.688C832 587.36 779.36 640 714.688 640zM768 117.312C768 87.904 744.096 64 714.688 64H181.312C151.936 64 128 87.904 128 117.312V522.688C128 552.064 151.936 576 181.312 576h533.376C744.096 576 768 552.064 768 522.688v-405.376zM842.688 768H256c-17.664 0-32-14.336-32-32s14.336-32 32-32h586.688C872.096 704 896 680.064 896 650.688V256c0-17.696 14.304-32 32-32s32 14.304 32 32V650.688C960 715.36 907.36 768 842.688 768zM672.64 447.264c-129.056 0-143.936-72.672-152.832-116.096-7.2-35.168-10.4-39.968-28.64-42.88-34.976-5.568-44-0.192-58.912 8.8-15.456 9.312-36.672 22.08-77.952 23.168-126.688 2.624-160.192-148.096-161.6-154.496-3.712-17.28 7.264-34.304 24.544-38.016 2.272-0.512 4.544-0.704 6.752-0.704 14.752 0 28 10.24 31.264 25.248 0.224 1.056 23.232 104.032 95.488 104.032 0.64 0 1.28 0 1.92-0.032 24.352-0.608 33.632-6.208 46.496-13.984 24.032-14.464 48.352-25.76 102.08-17.184 64.192 10.272 74.432 60.192 81.184 93.216 8.32 40.512 13.312 64.928 90.144 64.928 17.696 0 32 14.336 32 32s-14.272 32-31.936 32z"  horiz-adv-x="1024" />

    
    <glyph glyph-name="line1" unicode="&#58885;" d="M1259.667 1188.432l56.765-56.765-1552.081-1552.081-56.765 56.765 1552.081 1552.081z"  horiz-adv-x="1025" />

    
    <glyph glyph-name="circle" unicode="&#58889;" d="M830.187 702.2c-80.775 81.406-192.702 131.8-316.4 131.8-0.189 0-0.378 0-0.567 0h-1.221c-248.525 0-450-201.475-450-450s201.462-450 450-450 450 201.475 450 450v1.25c0 0.157 0 0.344 0 0.53 0 123.696-50.393 235.622-131.772 316.367zM797.237 98.75c-72.422-72.976-172.768-118.15-283.665-118.15-0.179 0-0.358 0-0.537 0h-1.034c-222.787 0-403.387 180.6-403.387 403.387-0.024 222.813 180.587 403.425 403.387 403.425 222.787 0 403.387-180.6 403.387-403.387v-1.101c0-0.153 0-0.334 0-0.515 0-110.881-45.17-211.212-118.113-283.597z"  horiz-adv-x="1024" />

    
    <glyph glyph-name="miaobian" unicode="&#59285;" d="M799.4 516.8c-0.2-0.2-1.3 0.4-2.3 1.5L650.4 665c-1 1-1.7 2.1-1.5 2.3l33 33c0.2 0.2 1.3-0.4 2.3-1.5L831 552.2c1-1 1.7-2.1 1.5-2.3l-33.1-33.1m0 0M871.8 672.4l-68 68c-17.1 17.1-41.8 21.3-60.3 11.8-3.9-2-7.5-4.6-10.7-7.8l-20.3-20.3c-1.5-1.5-2.8-3-4-4.6 0.2-0.3 0.5-0.6 0.9-1L850 577.9c0.3-0.3 0.6-0.6 0.9-0.8 1.6 1.2 3.2 2.5 4.6 4l20.3 20.3c3.2 3.2 5.8 6.8 7.8 10.7 9.5 18.5 5.3 43.1-11.8 60.3m0 0M536.2 254.5c-0.9-3.3 237.8 235.8 237.8 235.8 1.7 1.7 2.9 3.2 2.7 3.5l-31 31c-0.2 0.2-1.8-1-3.5-2.7L508.1 287.7c-0.1-0.1-5.3-3.1-5.4-3.2 0 0-90.1-26.2-92.4-26.3-1.9-0.1-11.5 10.7-11.5 10.7s-9 8-9 9.9 28.6 98.3 28.6 98.3l232.9 234.4c1.7 1.7 2.9 3.2 2.7 3.4l-29 29c-0.2 0.2-1.7-1-3.4-2.7l-237.1-237c-0.2-0.2-3.3-3.4-3.7-4.6L331 231.5c-2.2-3.5-3.5-7.6-3.5-12.1 0-12.5 10.1-22.5 22.5-22.5 4.2 0 8.2 1.2 11.5 3.2 0.4-0.1 1.2 0 2 0.3 0 0 161.1 47.2 163.7 49.3l9 4.8zM718.3 551.9l-38.6 38.6c-0.3 0.3-1.9-0.9-3.5-2.5L442.1 353.9c-1.3-1.3-2.3-2.6-2.5-3.2l31.7-7.1c1.6-0.6 2.8-2 3.2-3.7 0-0.2 0.1-0.5 0.1-0.7l4.2-27.3c0.7 0.3 1.8 1.2 2.9 2.4l234.1 234.1c1.7 1.7 2.8 3.3 2.5 3.5m0 0M765.4 51.3H248.3c-65.9 0-119.5 53.6-119.5 119.5V648.5c0 65.9 53.6 119.5 119.5 119.5h209.5c6 0 10.9-4.9 10.9-10.9s-4.9-10.9-10.9-10.9H248.3c-53.9 0-97.7-43.8-97.7-97.7v-477.8c0-53.9 43.8-97.7 97.7-97.7h517.1c53.9 0 97.7 43.8 97.7 97.7V408.1c0 6 4.9 10.9 10.9 10.9s10.9-4.9 10.9-10.9v-237.3c0-65.9-53.6-119.5-119.5-119.5z"  horiz-adv-x="1024" />

    
    <glyph glyph-name="liubianxing" unicode="&#58892;" d="M509.824 859.072L921.28 621.568v-475.072L509.824-91.008 98.432 146.496V621.504L509.824 859.072m0 36.928L66.432 640v-512l443.392-256L953.28 128V640L509.824 896z"  horiz-adv-x="1024" />

    
    <glyph glyph-name="xiantiao" unicode="&#58965;" d="M81.847 466.428h122.183v-38.915h-122.183zM231.145 466.428h122.183v-38.915h-122.183zM380.444 466.428h122.183v-38.915h-122.183zM529.743 466.428h122.183v-38.915h-122.183zM679.039 466.428h122.183v-38.915h-122.183zM828.338 466.428h122.183v-38.915h-122.183z"  horiz-adv-x="1024" />

    
    <glyph glyph-name="wenzi2" unicode="&#58920;" d="M497.088-60.032a35.84 35.84 0 0 0-36.608 36.672V752H104.832c-16.64 0-36.672 19.968-36.672 36.608 0 16.64 19.968 36.672 36.672 36.672H890.24c16.64 0 36.608-19.968 36.608-36.672 0-16.64-19.968-36.608-36.608-36.608H533.76v-775.424c0-23.36-13.312-36.672-36.672-36.672z"  horiz-adv-x="1024" />

    
    <glyph glyph-name="huaban2" unicode="&#58980;" d="M719.7 585.7c0.1-0.1 0.1-0.2 0.2-0.2l0.1-0.1c-0.2 0.1-0.3 0.2-0.3 0.3zM706 589.3h0.9c0.4 0.1 0.1 0.2-0.9 0zM705.7 589.3v0zM867 832.1h-719c-27.8 0-50.4-22.6-50.4-50.4v-603.2c0-27.8 22.6-50.4 50.4-50.4h192.5l-83.6-144.8c-8.6-14.8-3.4-34 11.4-42.6 14.8-8.6 34-3.4 42.6 11.4l101.6 176h191.6l99.9-175.7c8.5-14.9 27.6-20.2 42.5-11.7s20.2 27.6 11.7 42.5l-82.4 145h191.2c27.8 0 50.4 22.6 50.4 50.4v603.2c0 27.8-22.6 50.3-50.4 50.3zM757.1 490c-3-23.6-7.3-47.3-13.7-70.2-4.2-14.9-27.3-8.5-23.1 6.4 0.1 0.4 0.3 0.9 0.4 1.3 2.2 9.1 4.5 18.1 6.4 27.2 1.6 7.6 3 15.2 4.2 22.9 0.3 2.1 0.7 4.2 1 6.3 0.2 1.1 0.3 2.1 0.5 3.2 0.1 0.4 0.2 1.1 0.2 1.6 0.5 4.2 1 8.5 1.5 12.7 0.9 9 1.4 18 1.5 27 0 4.4-0.1 8.8-0.3 13.2-0.1 2.1-0.3 4.3-0.5 6.4-0.1 1-0.2 2.1-0.3 3.1 0 0.2 0 0.4-0.1 0.5v0.2c-0.7 3.9-1.3 7.8-2.3 11.6-0.5 1.8-1 3.6-1.6 5.4-0.3 0.9-0.6 1.7-0.9 2.6-0.1 0.2-0.2 0.4-0.2 0.6-1.4 3-3 5.8-4.8 8.6-0.1 0.1-0.1 0.2-0.2 0.2l-0.1 0.1c-0.5 0.5-0.9 1-1.4 1.5-0.8 0.8-1.7 1.5-2.5 2.3l-0.7 0.7c-0.1 0.1-0.3 0.2-0.5 0.3-0.6 0.4-1.1 0.7-1.7 1.1-0.7 0.4-1.4 0.7-2.1 1.1h-0.1c-1.6 0.4-3.1 1-4.7 1.4-0.7-0.1-1.5 0.1-2.2 0.1-0.6 0-1.1-0.1-1.7-0.1-0.2 0-0.5-0.1-0.9-0.1h-0.1c-1.9-0.4-3.8-0.9-5.7-1.4-1.8-0.5-3.5-1.2-5.2-1.8-0.1-0.1-1.8-0.8-2.2-1-1.1-0.5-2.2-1.1-3.4-1.6-23.4-11.6-44.6-28.3-65.1-44.3-52.9-41.1-105.1-83-157.9-124.3-27.6-21.6-55.3-43.2-83-64.8-10.8-8.4-24.8 1.8-18.8 14.5 0.1 0.3 0.3 0.6 0.4 0.9l3 6.6c0.8 1.9 1.6 3.7 2.4 5.6 0.2 0.4 0.4 0.9 0.6 1.3 0.4 1 0.9 2 1.3 3.1 5.3 12.8 10.3 25.7 14.9 38.7 5.9 16.6 11.3 33.4 15.9 50.3 2.5 9.1 4.7 18.2 6.7 27.4 0.9 4.4 1.8 8.8 2.6 13.3 0.4 2.5 0.9 4.9 1.2 7.4 0.2 1 0.3 2.1 0.5 3.1 0 0.3 0.2 1.5 0.3 2.1 0.1 0.6 0.3 2.2 0.3 2.6 0.1 1 0.2 2.1 0.4 3.1 0.2 2.2 0.5 4.4 0.6 6.7 0.4 4.2 0.6 8.4 0.7 12.6 0.2 8.2-0.1 16.4-1 24.6v0.1c0 0.2-0.1 0.4-0.1 0.7-0.1 0.9-0.3 1.7-0.4 2.6-0.3 1.8-0.7 3.7-1.1 5.5-0.8 3.4-1.8 6.7-3 10-0.2 0.6-0.5 1.2-0.7 1.8-0.1 0.3-0.3 0.8-0.5 1.2-0.7 1.4-1.4 2.8-2.2 4.2-0.8 1.5-1.7 2.9-2.6 4.2-0.4 0.6-0.9 1.2-1.3 1.9 0.4-0.6 0.7-1 0.8-1.2 0.1-0.1 0.1-0.2 0 0-0.2 0.3-0.8 1.1-1.1 1.4-2.6 2.9-5.4 5.7-8.4 8.1-0.1 0-1.9 1.4-2.4 1.7-0.9 0.6-1.8 1.1-2.7 1.6-1.5 0.9-3 1.6-4.5 2.3-0.3 0.1-1.4 0.6-2 0.7-0.9 0.3-1.8 0.6-2.7 0.8-1 0.3-2.1 0.5-3.2 0.7-0.4 0.1-0.8 0.2-1.1 0.2-3.6 0.4-7.1 0.3-10.6 0h-0.6c-0.2 0-0.4-0.1-0.7-0.2-0.9-0.2-1.8-0.3-2.7-0.5-1.8-0.4-3.6-0.9-5.3-1.5-1-0.3-2.1-0.7-3.1-1.1-0.3-0.1-1.4-0.6-2-0.8-0.5-0.2-1.4-0.6-1.6-0.7-0.9-0.4-1.7-0.8-2.6-1.2-3.8-1.9-7.4-4-10.9-6.3-1.8-1.2-3.5-2.4-5.3-3.6l-2.4-1.8c-0.1-0.1-0.2-0.2-0.3-0.2-0.1-0.1-0.2-0.2-0.4-0.3-12-9.9-22.8-20.8-32.7-32.7-1-1.2-2-2.4-2.9-3.6-0.5-0.6-1-1.2-1.4-1.8l-0.1-0.1c-0.3-0.4-1.4-1.9-1.7-2.3-0.6-0.8-1.2-1.6-1.8-2.5-1.1-1.5-2.2-3.1-3.3-4.7-3.6-5.4-10.5-7.7-16.4-4.3-5.4 3.1-7.9 11-4.3 16.4 0.3 0.5 0.6 0.9 0.9 1.4 15.7 23.8 37.3 46.3 61.3 61.6 15 9.6 33.2 16.7 51.3 14.8 20.2-2.2 38-13.9 49.3-30.6 9.2-13.7 12.8-30.4 14.3-46.6 1.7-18.7-0.2-37.5-3.1-56-5.7-36.8-16.8-72.7-29.7-107.6-1.2-3.3-2.5-6.7-3.8-10 23.4 18.3 46.9 36.6 70.3 54.9 27 21.2 54 42.3 80.9 63.6 27.4 21.7 54.4 43.9 82.7 64.4 10.7 7.7 21.6 15.2 33 21.7 8.8 4.9 18.4 9.8 28.4 11.8 18.2 3.8 35-3.7 45.9-18.4 10.2-13.7 13.3-31.9 14.6-48.5 1.1-18.2-0.2-36.8-2.5-55.1zM729.5 572.1c-0.4 0.8-0.6 1.3 0 0zM719.9 585.4l0.7-0.7c0.2-0.1-0.1 0.2-0.7 0.7z"  horiz-adv-x="1024" />

    
    <glyph glyph-name="xuanzhuan1" unicode="&#58987;" d="M629.517 780.436c-167.979 45.174-339.148-8.499-452.083-125.282l54.414 202.342c4.138 15.393-4.981 31.225-20.373 35.353-15.392 4.149-31.225-4.97-35.363-20.362l-74.957-278.701c-0.902-3.367-0.952-6.694-0.632-9.961 0.101-1.224 0.351-2.365 0.612-3.547a28.565 28.565 0 0 1 1.803-5.251c1.643-3.808 3.928-7.215 7.045-10.021-0.563-0.982-0.973-2.085-1.524-3.067l13.068-3.527 44.242-11.905 234.459-63.051c15.392-4.13 31.226 4.99 35.364 20.383 4.138 15.39-4.98 31.224-20.372 35.354L202.275 596.47c98.044 114.941 256.655 170.056 412.25 128.209 215.498-57.941 343.205-279.624 285.253-495.113-57.958-215.489-279.62-343.196-495.11-285.234-196.521 52.851-319.526 241.864-295.807 438.174l-56.317 15.151c-31.657-227.294 109.779-447.915 337.123-509.063 246.283-66.237 499.622 79.708 565.85 325.981 66.227 246.273-79.716 499.622-326 565.861z m-30.736-469.92c13.248 49.264-15.941 99.928-65.195 113.176-49.261 13.248-99.928-15.952-113.175-65.195-13.248-49.265 15.943-99.929 65.196-113.176 49.262-13.249 99.927 15.952 113.174 65.195z"  horiz-adv-x="1024" />

    
    <glyph glyph-name="caijian" unicode="&#58896;" d="M194.606 636.666c-24.65 0-49.61 4.53-74.15 13.48C32.497 682.124-17.847 758.228 5.848 823.405 22.147 868.196 70.092 896 130.983 896c24.627 0 49.544-4.509 74.06-13.436 40.55-14.745 74.838-39.95 96.579-70.973 23.451-33.51 29.846-69.863 18.01-102.374-16.3-44.77-64.2-72.551-125.026-72.551zM130.983 850.52c-41.26 0-72.817-16.345-82.41-42.66-14.479-39.817 25.56-92.47 87.43-114.988 19.297-7.018 39.55-10.726 58.603-10.726 41.172 0 72.706 16.322 82.3 42.638 6.617 18.165 2.154 39.728-12.548 60.714-16.433 23.45-43.015 42.748-74.86 54.34-19.253 6.995-39.483 10.682-58.515 10.682zM776.363 437.18a22.63 22.63 0 0 0-9.838 2.243L294.582 666.246c-11.303 5.44-16.078 19.031-10.638 30.357 5.42 11.28 18.965 16.122 30.357 10.637l471.945-226.823c11.303-5.44 16.078-19.03 10.638-30.357-3.909-8.127-12.037-12.88-20.52-12.88zM131.072 360.644c-60.936 0-108.926 27.836-125.225 72.627C-5.99 465.805 0.406 502.158 23.855 535.646c21.72 31 56.008 56.184 96.58 70.93 24.538 8.927 49.455 13.457 74.104 13.457 60.848 0 108.792-27.802 125.093-72.55 23.717-65.2-26.582-141.37-114.521-173.416-24.518-8.903-49.434-13.423-74.04-13.423z m63.467 213.909c-19.054 0-39.306-3.709-58.56-10.704-31.866-11.592-58.471-30.89-74.88-54.319-14.68-20.962-19.145-42.526-12.526-60.713 9.593-26.337 41.194-42.704 82.499-42.704 19.032 0 39.24 3.709 58.47 10.681 61.848 22.54 101.864 75.26 87.364 115.121-9.594 26.294-41.15 42.638-82.367 42.638zM304.465 547.24c-8.594 0-16.833 4.884-20.675 13.212-5.264 11.391-0.288 24.894 11.125 30.18L766.86 808.614c11.436 5.285 24.915 0.289 30.178-11.125 5.263-11.393 0.289-24.894-11.124-30.18L313.968 549.324a22.695 22.695 0 0 0-9.503-2.086zM1055.44-128h-45.48c-12.57 0-22.74 10.17-22.74 22.741 0 12.568 10.17 22.74 22.74 22.74h45.48c12.57 0 22.74-10.172 22.74-22.74 0-12.57-10.17-22.741-22.74-22.741zM919-128h-45.481c-12.57 0-22.739 10.17-22.739 22.741 0 12.568 10.17 22.74 22.739 22.74h45.48c12.57 0 22.741-10.172 22.741-22.74 0-12.57-10.17-22.741-22.74-22.741z m-136.44 0h-45.481c-12.568 0-22.74 10.17-22.74 22.741 0 12.568 10.172 22.74 22.74 22.74h45.481c12.568 0 22.74-10.172 22.74-22.74 0-12.57-10.172-22.741-22.74-22.741z m-136.44 0h-45.48c-12.57 0-22.741 10.17-22.741 22.741 0 12.568 10.17 22.74 22.74 22.74h45.48c12.57 0 22.74-10.172 22.74-22.74 0-12.57-10.17-22.741-22.74-22.741z m-136.441 0h-45.48c-12.568 0-22.74 10.17-22.74 22.741 0 12.568 10.172 22.74 22.74 22.74h45.48c12.57 0 22.741-10.172 22.741-22.74 0-12.57-10.171-22.741-22.741-22.741z m-136.44 0h-45.48c-12.568 0-22.74 10.17-22.74 22.741 0 12.568 10.172 22.74 22.74 22.74h45.48c12.569 0 22.74-10.172 22.74-22.74 0-12.57-10.171-22.741-22.74-22.741z m772.783 3.953c-9.993 0-19.142 6.618-21.917 16.744-3.31 12.126 3.84 24.606 15.943 27.937 11.725 3.198 22.474 8.66 31.978 16.3 9.771 7.861 24.073 6.307 31.979-3.508 7.861-9.772 6.284-24.118-3.51-31.98-14.389-11.547-30.689-19.852-48.455-24.693-1.999-0.535-4.02-0.8-6.018-0.8z m-907.712 6.396a22.38 22.38 0 0 0-9.571 2.132c-16.679 7.728-31.358 18.653-43.615 32.422-8.372 9.37-7.55 23.761 1.82 32.112 9.394 8.305 23.74 7.55 32.112-1.821 8.128-9.15 17.832-16.345 28.87-21.451 11.37-5.331 16.322-18.833 11.037-30.247-3.865-8.261-12.08-13.147-20.653-13.147z m989.41 92.248c-0.62 0-1.265 0-1.907 0.088-12.526 1.022-21.808 11.992-20.764 24.518 0.177 2.309 0.266 4.663 0.266 7.017v36.552c0 12.57 10.17 22.74 22.74 22.74 12.569 0 22.739-10.17 22.739-22.74v-36.552c0-3.642-0.132-7.24-0.443-10.794-0.977-11.857-10.926-20.83-22.63-20.83zM173.843-6.75c-12.568 0-22.74 10.171-22.74 22.74v45.48c0 12.57 10.172 22.74 22.74 22.74 12.57 0 22.74-10.17 22.74-22.74v-45.48c0-12.569-10.17-22.74-22.74-22.74z m1054.214 117.742c-12.572 0-22.741 10.171-22.741 22.74v45.48c0 12.57 10.17 22.74 22.74 22.74 12.569 0 22.739-10.17 22.739-22.74v-45.48c0-12.569-10.17-22.74-22.738-22.74zM173.842 129.691c-12.568 0-22.74 10.17-22.74 22.739v45.48c0 12.57 10.172 22.741 22.74 22.741 12.57 0 22.74-10.171 22.74-22.74v-45.481c0-12.568-10.17-22.74-22.74-22.74z m1054.214 117.742c-12.572 0-22.741 10.17-22.741 22.74v45.479c0 12.569 10.17 22.741 22.74 22.741 12.569 0 22.739-10.172 22.739-22.741v-45.48c0-12.568-10.17-22.74-22.738-22.74zM173.842 266.13c-12.568 0-22.74 10.17-22.74 22.74v40.107c0 12.568 10.172 22.739 22.74 22.739 12.57 0 22.74-10.171 22.74-22.74v-40.106c0-12.57-10.17-22.74-22.74-22.74z m1054.214 117.752c-12.572 0-22.741 10.171-22.741 22.741v45.48c0 12.569 10.17 22.74 22.74 22.74 12.569 0 22.739-10.171 22.739-22.74v-45.48c0-12.57-10.17-22.74-22.738-22.74z m-4.465 135.996c-9.86 0-18.92 6.44-21.83 16.344-3.398 11.615-9.083 22.275-16.92 31.69-8.041 9.638-6.73 23.984 2.93 32.022 9.638 8.04 23.96 6.685 32.023-2.93 11.836-14.213 20.453-30.358 25.626-47.99 3.532-12.059-3.397-24.694-15.434-28.226-2.13-0.621-4.286-0.91-6.395-0.91z m-100.131 79.835c-0.445 0-0.91 0.022-1.355 0.044a89.83 89.83 0 0 1-5.485 0.156h-38.663c-12.568 0-22.74 10.17-22.74 22.74 0 12.568 10.172 22.74 22.74 22.74h38.663c2.73 0 5.44-0.089 8.15-0.244 12.547-0.734 22.095-11.504 21.364-24.03-0.713-12.08-10.728-21.406-22.674-21.406z m-136.462 0.2h-45.48c-12.57 0-22.741 10.17-22.741 22.74 0 12.568 10.17 22.74 22.74 22.74h45.481c12.57 0 22.739-10.172 22.739-22.74 0-12.57-10.17-22.74-22.739-22.74z m-136.44 0h-45.48c-12.57 0-22.74 10.17-22.74 22.74 0 12.568 10.17 22.74 22.74 22.74h45.48c12.569 0 22.74-10.172 22.74-22.74 0-12.57-10.171-22.74-22.74-22.74z m-136.44 0h-45.48c-12.57 0-22.74 10.17-22.74 22.74 0 12.568 10.17 22.74 22.74 22.74h45.48c12.567 0 22.74-10.172 22.74-22.74 0-12.57-10.173-22.74-22.74-22.74z"  horiz-adv-x="1251" />

    
    <glyph glyph-name="baocun2" unicode="&#58890;" d="M790.7-28.2H234.6c-76.2 0-138.2 62-138.2 138.2V657.6c0 76.2 62 138.2 138.2 138.2h556.2c76.2 0 138.2-62 138.2-138.2V110c-0.1-76.2-62.1-138.2-138.3-138.2zM234.6 741.9c-46.5 0-84.3-37.8-84.3-84.3V110c0-46.5 37.8-84.3 84.3-84.3h556.2c46.5 0 84.3 37.8 84.3 84.3V657.6c0 46.5-37.8 84.3-84.3 84.3H234.6z m544.6-359.4H246.1V795.8h533.1v-413.3z m-479.2 54h425.3V741.9H300v-305.4z m292 226.1h53.9v-179.7H592V662.6z"  horiz-adv-x="1024" />

    
    <glyph glyph-name="caijianshu" unicode="&#58897;" d="M1036.22 123.126c23.11 0 46.509-4.247 69.516-12.637 82.462-29.978 129.659-101.328 107.445-162.431-15.28-41.992-60.229-68.058-117.314-68.058-23.088 0-46.447 4.227-69.431 12.596-38.016 13.823-70.161 37.452-90.543 66.537-21.985 31.416-27.981 65.497-16.884 95.976 15.281 41.972 60.188 68.017 117.212 68.017zM1095.867-77.362c38.682 0 68.266 15.323 77.258 39.994 13.574 37.328-23.962 86.691-81.966 107.801-18.092 6.579-37.079 10.056-54.94 10.056-38.6 0-68.162-15.301-77.156-39.973-6.203-17.031-2.019-37.245 11.764-56.919 15.406-21.984 40.327-40.077 70.181-50.944 18.050-6.558 37.016-10.014 54.857-10.014zM490.823 310.144c0.006 0 0.008 0 0.016 0 3.349 0 6.517-0.776 9.334-2.158l442.322-212.59c10.597-5.1 15.073-17.842 9.973-28.46-5.081-10.575-17.78-15.114-28.46-9.972l-442.448 212.647c-10.597 5.1-15.073 17.841-9.973 28.46 3.665 7.619 11.285 12.075 19.237 12.075zM1095.782 381.897c57.129 0 102.118-26.096 117.397-68.088 11.097-30.501 5.101-64.581-16.883-95.977-20.363-29.063-52.508-52.673-90.543-66.497-23.004-8.369-46.364-12.617-69.472-12.616-57.045 0-101.993 26.064-117.276 68.016-22.235 61.124 24.921 132.534 107.363 162.577 22.986 8.347 46.345 12.584 69.413 12.584zM1036.283 181.356c17.863 0 36.849 3.477 54.9 10.035 29.874 10.867 54.817 28.96 70.2 50.924 13.762 19.652 17.948 39.868 11.743 56.919-8.993 24.691-38.619 40.035-77.343 40.035-17.843 0-36.788-3.478-54.816-10.013-57.983-21.131-95.498-70.556-81.904-107.926 8.994-24.651 38.578-39.973 77.219-39.973zM933.227 206.963c8.057 0 15.781-4.579 19.383-12.386 4.935-10.679 0.269-23.338-10.43-28.294l-442.448-204.358c-10.72-4.956-23.358-0.271-28.293 10.43-4.934 10.682-0.271 23.338 10.428 28.294l442.449 204.361c2.614 1.235 5.678 1.956 8.91 1.956zM229.188 840h42.637c11.785 0 21.319-9.534 21.319-21.32 0-11.782-9.534-21.319-21.319-21.319h-42.637c-11.785 0-21.319 9.536-21.319 21.319 0 11.785 9.534 21.32 21.319 21.32zM357.102 840h42.639c11.785 0 21.319-9.534 21.319-21.32 0-11.782-9.534-21.319-21.319-21.32h-42.639c-11.785 0-21.32 9.535-21.32 21.319 0 11.785 9.534 21.32 21.319 21.32zM485.013 840h42.639c11.782 0 21.319-9.534 21.319-21.32 0-11.782-9.536-21.319-21.319-21.319h-42.639c-11.782 0-21.319 9.536-21.319 21.319 0 11.785 9.535 21.32 21.319 21.32zM612.926 840h42.639c11.785 0 21.32-9.534 21.32-21.32 0-11.782-9.534-21.319-21.319-21.319h-42.637c-11.785 0-21.319 9.536-21.319 21.319 0 11.785 9.534 21.32 21.319 21.32zM740.839 840h42.637c11.782 0 21.319-9.534 21.319-21.32 0-11.782-9.536-21.319-21.319-21.319h-42.637c-11.785 0-21.32 9.535-21.32 21.319 0 11.785 9.535 21.32 21.32 21.32zM868.752 840h42.639c11.782 0 21.319-9.534 21.319-21.32 0-11.782-9.536-21.319-21.319-21.319h-42.639c-11.785 0-21.319 9.536-21.319 21.319 0 11.785 9.535 21.32 21.319 21.32zM144.268 836.294c9.368 0 17.946-6.204 20.547-15.698 3.103-11.368-3.6-23.068-14.947-26.191-10.992-2.997-21.069-8.119-29.979-15.281-9.161-7.37-22.568-5.913-29.98 3.289-7.37 9.161-5.889 22.611 3.291 29.981 13.491 10.825 28.771 18.611 45.427 23.15 1.874 0.502 3.769 0.75 5.642 0.75zM995.247 830.298c0.010 0 0.023 0 0.035 0 3.247 0 6.32-0.737 9.064-2.053 15.512-7.191 29.271-17.433 40.763-30.341 7.848-8.784 7.077-22.276-1.706-30.106-8.807-7.786-22.255-7.078-30.104 1.707-7.619 8.578-16.717 15.323-27.066 20.109-10.659 4.998-15.301 17.656-10.347 28.357 3.623 7.744 11.325 12.325 19.362 12.325zM67.676 743.815c0.58 0 1.185 0 1.788-0.082 11.743-0.958 20.445-11.243 19.466-22.986-0.165-2.165-0.25-4.372-0.249-6.578v-34.268c0-11.785-9.534-21.319-21.319-21.319s-21.319 9.534-21.319 21.32v34.268c0 3.414 0.124 6.788 0.415 10.119 0.916 11.116 10.243 19.527 21.216 19.527zM1055.685 726.328c11.782 0 21.32-9.535 21.319-21.319v-42.637c0-11.785-9.536-21.319-21.319-21.319-11.785 0-21.319 9.534-21.319 21.319v42.637c0 11.785 9.534 21.319 21.319 21.319zM67.36 615.946c11.786 0 21.32-9.535 21.32-21.319v-42.637c0-11.785-9.534-21.319-21.319-21.319s-21.319 9.534-21.319 21.32v42.637c0 11.785 9.534 21.319 21.317 21.319zM1055.686 598.415c11.782 0 21.319-9.534 21.32-21.319v-42.637c0-11.785-9.535-21.32-21.319-21.32-11.785 0-21.32 9.535-21.319 21.319v42.639c0 11.782 9.534 21.319 21.319 21.319zM67.361 488.032c11.786 0 21.32-9.534 21.32-21.319v-42.637c0-11.785-9.534-21.32-21.319-21.32s-21.318 9.536-21.319 21.32v42.637c0 11.782 9.534 21.319 21.317 21.319zM1055.686 470.502c11.782 0 21.319-9.534 21.319-21.319v-37.6c0-11.782-9.536-21.318-21.32-21.319-11.785 0-21.32 9.535-21.319 21.319v37.6c0 11.785 9.534 21.319 21.319 21.319zM67.361 360.111c11.786 0 21.32-9.535 21.32-21.32v-42.637c0-11.785-9.534-21.319-21.319-21.319s-21.318 9.535-21.319 21.32v42.639c0 11.785 9.534 21.319 21.317 21.319zM71.547 232.615c9.243 0 17.737-6.037 20.466-15.323 3.186-10.889 8.516-20.883 15.863-29.709 7.538-9.036 6.309-22.485-2.746-30.021-9.036-7.537-22.462-6.266-30.022 2.747-11.096 13.325-19.175 28.461-24.024 44.991-3.312 11.305 3.185 23.151 14.47 26.462 1.998 0.582 4.018 0.853 5.994 0.853zM165.419 157.769c0.417 0 0.853-0.021 1.27-0.041 1.484-0.093 3.218-0.146 4.964-0.146 0.062 0 0.124 0 0.187 0h36.236c11.782 0 21.319-9.534 21.319-21.319 0-11.783-9.536-21.319-21.319-21.319h-36.246c-2.558 0-5.1 0.083-7.64 0.229-11.763 0.688-20.714 10.785-20.029 22.528 0.668 11.325 10.058 20.068 21.257 20.068zM293.352 157.581h42.639c11.785 0 21.32-9.534 21.32-21.319 0-11.783-9.534-21.319-21.319-21.319h-42.639c-11.785 0-21.318 9.536-21.319 21.32s9.534 21.319 21.319 21.32zM421.266 157.582h42.637c11.785 0 21.319-9.534 21.319-21.319 0-11.783-9.534-21.319-21.319-21.319h-42.637c-11.785 0-21.319 9.536-21.319 21.319 0 11.785 9.535 21.32 21.319 21.319zM549.177 157.582h42.639c11.785 0 21.319-9.534 21.319-21.319 0-11.783-9.534-21.319-21.319-21.319h-42.639c-11.782 0-21.319 9.536-21.319 21.319 0 11.785 9.537 21.319 21.319 21.319z"  horiz-adv-x="1251" />

    
    <glyph glyph-name="pan_icon" unicode="&#59000;" d="M999.050 697.426l-173.617 173.607c-15.437 15.427-36.758 24.968-60.308 24.968s-44.87-9.541-60.308-24.968l-671.069-671.080c-0.317-0.317-0.42-0.748-0.717-1.085-3.484-3.697-5.987-8.356-7.071-13.536 1.746 5.457 1.603 5.293 1.521 5.099-1.226-2.946-1.975-6.363-2.058-9.945l-25.303-277.478c-0.074-0.767-0.115-1.659-0.115-2.56 0-15.708 12.732-28.442 28.438-28.446 0.861-0 1.71-0 2.571 0.113l279.426 25.405c3.632 0.344 6.962 1.321 9.986 2.822-1.773-0.795-1.599-0.641-1.405-0.559 4.877 2.202 8.889 5.582 11.789 9.789-3.587-4.259-3.157-4.157-2.829-3.839l533.477 533.446s0 0.061 0.051 0.082l137.542 137.542c15.413 15.446 24.943 36.766 24.943 60.313 0 23.546-9.531 44.867-24.945 60.314zM587.305 673.116l213.829-213.829-493.265-493.265-213.829 213.829zM59.839-68.179l16.824 185.014 168.19-168.19zM958.848 617.002l-117.503-117.503-213.839 213.819 117.513 117.513c5.142 5.153 12.252 8.34 20.106 8.34s14.964-3.188 20.106-8.34l173.617-173.597c5.136-5.154 8.312-12.264 8.312-20.116 0-7.852-3.176-14.963-8.313-20.117zM333.274 176.831c0.012-0 0.026-0 0.040-0 7.837 0 14.931 3.182 20.061 8.324l254.042 254.031c5.144 5.144 8.326 12.251 8.326 20.101 0 15.7-12.727 28.427-28.427 28.427-7.85 0-14.957-3.182-20.101-8.326l-254.041-254.031c-5.145-5.144-8.326-12.251-8.326-20.101 0-15.699 12.727-28.426 28.426-28.426 0.001 0 0.001 0 0.002 0z"  horiz-adv-x="1024" />

    
    <glyph glyph-name="xiaoxuxian" unicode="&#58994;" d="M64 384c0 17.673 14.326 32 32 32h56c17.673 0 32-14.323 32-32 0-17.673-14.326-32-32-32H96c-17.673 0-32 14.323-32 32z m388 0c0 17.673 14.326 32 32 32h56c17.673 0 32-14.323 32-32 0-17.673-14.326-32-32-32h-56c-17.673 0-32 14.323-32 32z m-194 0c0 17.673 14.326 32 32 32h56c17.673 0 32-14.323 32-32 0-17.673-14.326-32-32-32h-56c-17.673 0-32 14.323-32 32z m582 0c0 17.673 14.326 32 32 32h56c17.673 0 32-14.323 32-32 0-17.673-14.326-32-32-32h-56c-17.673 0-32 14.323-32 32z m-194 0c0 17.673 14.326 32 32 32h56c17.673 0 32-14.323 32-32 0-17.673-14.326-32-32-32h-56c-17.673 0-32 14.323-32 32z"  horiz-adv-x="1024" />

    
    <glyph glyph-name="xuxian" unicode="&#58995;" d="M64 384c0 17.673 14.335 32 32.002 32h191.996C305.672 416 320 401.677 320 384c0-17.673-14.335-32-32.002-32H96.002C78.328 352 64 366.323 64 384z m640 0c0 17.673 14.335 32 32.002 32h191.996C945.672 416 960 401.677 960 384c0-17.673-14.335-32-32.002-32H736.002C718.328 352 704 366.323 704 384z m-320 0c0 17.673 14.335 32 32.002 32h191.996C625.672 416 640 401.677 640 384c0-17.673-14.335-32-32.002-32H416.002C398.328 352 384 366.323 384 384z"  horiz-adv-x="1024" />

    
    <glyph glyph-name="xiangpica_s" unicode="&#58951;" d="M952.43264 393.54368l-308.4288-308.4288c-1.62816-1.62816-3.54304-2.63168-5.12512-4.21376L242.0224 477.76256l313.07264 313.11872c37.58592 37.58592 98.33984 37.67808 135.63904 0.384l262.08256-262.08256c37.48864-37.48864 37.43744-97.8176-0.384-135.63904M229.13536 70.79424l-129.63328 129.68448c-37.09952 37.09952-37.09952 96.79872 0.37888 134.23104l91.20768 91.20768 389.33504-389.33504c-108.0832-72.48896-255.91296-61.16352-351.28832 34.21184m783.5392 500.0704L732.42112 851.11296c-59.89888 59.89888-157.27616 59.74528-217.43104-0.4096L45.41952 381.12768c-60.56448-60.56448-60.30848-157.48096-0.4096-217.43104l140.12416-140.12416c137.05216-137.05216 359.9616-137.30816 497.32096 0.0512l329.80992 329.80992c60.61568 60.56448 60.35968 157.48096 0.4096 217.43104"  horiz-adv-x="1075" />

    
    <glyph glyph-name="sijiaoxing" unicode="&#58893;" d="M510.643 825.853l-111.633-328.864-327.354-111.331 325.847-113.443 113.14-328.864 110.727 328.26 330.372 113.14-327.354 110.727z"  horiz-adv-x="1024" />

    
    <glyph glyph-name="fangdajing2" unicode="&#58913;" d="M224.066987 479.644587h51.725653s5.047467 126.361173 133.88288 127.601493v52.544s-172.299947 7.196587-185.608533-180.145493z m372.887466-336.415574l153.260374-154.219093c39.911253-39.92576 104.41728-39.92576 144.20224 0 39.770453 40.06656 39.764053 104.96 0 144.878933l-153.1264 154.219094-144.336214-144.878934zM420.79872 737.993813c-138.16832 0-250.544213-112.77056-250.544213-251.411626 0-138.647467 112.375893-251.42528 250.53696-251.42528 138.020267 0 250.241707 112.777813 250.241706 251.42528 0.006827 138.641067-112.34816 251.411627-250.241706 251.411626h0.007253z m0-573.636266c-177.00864 0-321.04192 144.470187-321.04192 322.225493 0 177.664427 144.03328 322.353067 321.034667 322.353067 176.860587 0 320.767147-144.618667 320.767146-322.353067 0-177.755733-143.906133-322.225493-320.767146-322.225493h0.007253z"  horiz-adv-x="1024" />

    
    <glyph glyph-name="juxing1" unicode="&#58940;" d="M942 816c22 0 40-18 40-40v-786c0-22-18-40-40-40H82c-22 0-40 18-40 40V776c0 22 18 40 40 40h860m0 42H82C36.8 858 0 821.2 0 776v-786c0-45.2 36.8-82 82-82h860c45.2 0 82 36.8 82 82V776c0 45.2-36.8 82-82 82z"  horiz-adv-x="1024" />

    
    <glyph glyph-name="liujiaoxing" unicode="&#58891;" d="M977.323 659.498l-320.553-0.069L520.184 896l-136.62-236.628-336.919-0.07L219.02 374.367 65.597 108.634h314.178l143.127-236.6 136.535 236.6h315.335L817.064 381.79z"  horiz-adv-x="1024" />

    
    <glyph glyph-name="xuanzhuan2" unicode="&#58944;" d="M725.996489 512.430788H74.557996A74.78199 74.78199 0 0 1 0 437.872792V-53.442004A74.78199 74.78199 0 0 1 74.557996-128h651.438493a74.78199 74.78199 0 0 1 74.557996 74.557996V437.872792a74.78199 74.78199 0 0 1-74.557996 74.557996z m10.527717-565.872792a10.815709 10.815709 0 0 0-10.527717-10.527717H74.557996a10.815709 10.815709 0 0 0-10.527717 10.527717V437.872792c0 5.59985 4.927868 10.527717 10.527717 10.527717h651.438493c5.59985 0 10.527717-4.927868 10.527717-10.527717V-53.442004zM1023.940482 362.834809c-37.822984 177.435231-174.011323 331.127101-355.382449 401.077221a592.112087 592.112087 0 0 1-234.329703 39.550937l36.511019 38.462966a31.99914 31.99914 0 1 1-46.398753 44.094815l-96.093418-101.149281a31.99914 31.99914 0 0 1 1.183969-45.278784l96.061418-90.973555a31.935142 31.935142 0 0 1 45.246784 1.247967 31.99914 31.99914 0 0 1-1.215967 45.278783l-46.750744 44.318809a529.169779 529.169779 0 0 0 222.746014-35.231053c161.403662-62.238327 282.392411-198.138675 315.703515-354.646469a32.063138 32.063138 0 0 1 62.718315 13.247644z"  horiz-adv-x="1024" />

    
    <glyph glyph-name="baocun3" unicode="&#58929;" d="M850.706 887.186L173.353 887.19C76.478 878.546 0 797.848 0 698.737v-633.882c0-104.824 85.294-190.118 190.118-190.118h643.765c104.824 0 190.118 85.294 190.118 190.118V698.737C1024 797.818 947.57 878.513 850.706 887.186zM790.471 828.62v-418.176H233.588V828.62h556.883z m173.294-763.765c0-71.588-58.294-129.882-129.882-129.882H190.118c-71.618 0-129.882 58.294-129.882 129.882V698.737c0 65.904 49.474 119.89 113.118 128.217v-476.746h677.353V826.947c63.614-8.353 113.059-62.335 113.059-128.21v-633.882zM603.886 704.476h62.379v-208.04h-62.379z"  horiz-adv-x="1024" />

    
    <glyph glyph-name="tianchong" unicode="&#58953;" d="M483.4353741496599 15.355442176870952L156.76785714285717 342.02465986394543l52.81037414965985 52.8095238095238h547.7142857142857l52.81037414965985-52.8095238095238zM483.41751700680277 2.8707482993197573l-6.2891156462585025 6.21938775510204L144.27551020408168 342.01275510204096l6.220238095238096 6.289965986394557 332.92176870748295 332.92261904761904 6.289965986394557-6.220238095238096L822.6292517006802 342.013605442177l-6.220238095238096-6.2891156462585025-332.9923469387755-332.8537414965986zM169.29421768707482 342.01275510204096l314.124149659864-314.1232993197279 314.19217687074826 314.124149659864-314.19217687074826 314.19217687074826-314.124149659864-314.19217687074826zM399.58163265306126 765.1318027210884l130.484693877551-130.48639455782308-12.577380952380954-12.578231292517005L387.0025510204082 752.5544217687075zM879.7244897959183 170.16496598639458c0-32.25085034013605-26.143707482993193-58.39455782312924-58.39455782312924-58.39455782312924S762.9353741496599 137.91411564625855 762.9353741496599 170.16496598639458s58.39455782312924 110.60629251700679 58.39455782312924 110.60629251700679 58.39455782312924-78.35629251700679 58.39455782312924-110.60629251700679z"  horiz-adv-x="1024" />

    
    <glyph glyph-name="tianchong2" unicode="&#59024;" d="M246.186256 850.346743L295.423508 896l147.88242-137.045105-49.237251-45.653257L246.186256 850.346743z m197.119672-182.698362l-307.455488-283.306195h614.825642l-307.370154 283.306195zM0 347.904913l443.305928 411.049982 443.476594-411.049982-443.476594-411.049981L0 347.904913zM921.598464-127.998293a105.813157 105.813157 0 0 0-72.447879 28.159953 92.842512 92.842512 0 0 0-29.95195 67.839887c0 53.077245 102.399829 224.255626 102.399829 224.255626s102.399829-171.178381 102.399829-224.255626c-0.085333-52.991912-45.909257-95.914507-102.399829-95.99984z"  horiz-adv-x="1024" />

    
    <glyph glyph-name="middlekefuiconmiaobian" unicode="&#58921;" d="M776.084211 747.789474c16.168421 0 26.947368 2.694737 37.726315 8.08421 24.252632 8.084211 43.115789 29.642105 48.505263 53.894737 5.389474 21.557895-2.694737 45.810526-18.863157 61.978947-40.421053 37.726316-113.178947 16.168421-148.210527-16.168421-10.778947-8.084211-32.336842-29.642105-43.115789-51.2-80.842105 21.557895-175.157895 18.863158-253.305263 0 0 2.694737-2.694737 5.389474-5.389474 8.084211-8.084211 13.473684-21.557895 26.947368-37.726316 43.115789-35.031579 32.336842-107.789474 53.894737-148.210526 16.168421-18.863158-18.863158-26.947368-40.421053-21.557895-61.978947 5.389474-24.252632 21.557895-43.115789 48.505263-53.894737 8.084211-5.389474 21.557895-5.389474 40.421053-8.08421-123.957895-78.147368-199.410526-218.273684-199.410526-393.431579 0-43.115789 5.389474-86.231579 16.168421-126.652632-26.947368-16.168421-53.894737-51.2-40.421053-91.621052 10.778947-35.031579 45.810526-51.2 107.789474-56.589474 10.778947-37.726316 43.115789-67.368421 83.536842-67.368421h26.947368c48.505263 0 86.231579 40.421053 86.231579 86.231579s-40.421053 86.231579-86.231579 86.231579h-26.947368c-43.115789 0-78.147368-32.336842-86.231579-72.757895-32.336842 2.694737-64.673684 10.778947-72.757895 32.336842-8.084211 26.947368 16.168421 45.810526 29.642105 53.894737h2.694737c10.778947 2.694737 16.168421 13.473684 13.473684 24.252631-10.778947 40.421053-16.168421 83.536842-16.168421 129.347369C115.873684 602.273684 282.947368 777.431579 525.473684 777.431579c48.505263 0 94.315789-5.389474 134.736842-18.863158 2.694737 0 13.473684-5.389474 13.473685-5.389474 161.684211-56.589474 261.389474-207.494737 261.389473-398.821052 0-245.221053-172.463158-423.073684-409.6-423.073684-75.452632 0-142.821053 16.168421-204.8 51.2-10.778947 5.389474-21.557895 2.694737-26.947368-8.084211s-2.694737-21.557895 8.08421-26.947368c67.368421-37.726316 142.821053-53.894737 223.663158-53.894737 261.389474 0 452.715789 194.021053 452.71579 463.494737 0 167.073684-75.452632 309.894737-202.105263 390.736842zM242.526316 149.557895h26.947368c26.947368 0 48.505263-21.557895 48.505263-48.505263s-21.557895-48.505263-48.505263-48.505264h-26.947368c-26.947368 0-48.505263 21.557895-48.505263 48.505264s21.557895 48.505263 48.505263 48.505263zM309.894737 788.210526c-40.421053 0-56.589474 2.694737-61.978948 5.389474-13.473684 2.694737-21.557895 13.473684-24.252631 21.557895-2.694737 8.084211 0 16.168421 8.08421 24.252631 5.389474 5.389474 16.168421 8.084211 26.947369 8.084211 21.557895 0 48.505263-10.778947 67.368421-26.947369 13.473684-13.473684 24.252632-24.252632 29.642105-32.336842H309.894737z m425.768421 0c-13.473684 0-32.336842 2.694737-45.810526 2.694737 5.389474 8.084211 13.473684 18.863158 29.642105 32.336842 26.947368 24.252632 75.452632 35.031579 94.315789 18.863158 5.389474-8.084211 8.084211-16.168421 8.084211-26.947368-2.694737-10.778947-10.778947-18.863158-21.557895-24.252632-8.084211 0-24.252632-2.694737-64.673684-2.694737zM396.126316 534.905263c37.726316 0 78.147368-16.168421 115.873684-48.505263l13.473684-10.778947 13.473684 10.778947c26.947368 21.557895 70.063158 48.505263 115.873685 48.505263 83.536842 0 153.6-53.894737 175.157894-132.042105 8.084211-21.557895 13.473684-51.2 13.473685-88.926316C843.452632 146.863158 697.936842 6.736842 525.473684 6.736842c-45.810526 0-88.926316 8.084211-129.347368 26.947369-10.778947 5.389474-21.557895 0-26.947369-10.778948-5.389474-10.778947 0-21.557895 10.778948-26.947368 45.810526-21.557895 94.315789-32.336842 145.515789-32.336842 194.021053 0 358.4 158.989474 358.4 347.621052 0 43.115789-5.389474 75.452632-16.168421 99.705263-24.252632 94.315789-113.178947 161.684211-212.88421 161.684211-51.2 0-97.010526-24.252632-129.347369-45.810526-40.421053 29.642105-86.231579 45.810526-129.347368 45.810526-99.705263 0-188.631579-67.368421-212.884211-158.989474-10.778947-26.947368-16.168421-59.284211-16.168421-102.4 0-29.642105 2.694737-56.589474 10.778948-83.536842 2.694737-10.778947 13.473684-16.168421 24.252631-13.473684 10.778947 2.694737 16.168421 13.473684 13.473684 24.252632-5.389474 24.252632-10.778947 48.505263-10.778947 72.757894 0 37.726316 5.389474 64.673684 13.473684 88.926316 24.252632 80.842105 97.010526 134.736842 177.852632 134.736842zM708.715789 281.6v37.726316c0 21.557895-16.168421 37.726316-37.726315 37.726316-21.557895 0-37.726316-16.168421-37.726316-37.726316v-37.726316c0-21.557895 16.168421-37.726316 37.726316-37.726316 21.557895 0 37.726316 16.168421 37.726315 37.726316zM401.515789 243.873684c21.557895 0 37.726316 16.168421 37.726316 37.726316v37.726316c0 21.557895-16.168421 37.726316-37.726316 37.726316-21.557895 0-37.726316-16.168421-37.726315-37.726316v-37.726316c0-21.557895 16.168421-37.726316 37.726315-37.726316z"  horiz-adv-x="1024" />

    
    <glyph glyph-name="xiguan1" unicode="&#58943;" d="M660.224 444.501333L360.533333 144.725333c-7.68-7.637333-17.109333-13.226667-27.52-16.213333-57.728-16.725333-93.653333-18.048-107.690666-4.010667-14.634667 14.634667-6.954667 47.36 22.997333 98.218667a64 64 0 0 0 9.898667 12.8l305.493333 305.493333 18.133333-18.090666-296.746666-296.704a64 64 0 0 1-6.912-8.234667c-32.170667-45.312-43.605333-72.576-34.346667-81.834667 8.96-8.96 38.144-1.962667 87.466667 21.034667a64 64 0 0 1 18.218666 12.8l292.650667 292.608 18.090667-18.090667zM692.778667 644.138667a405.034667 405.034667 0 0 0-33.706667 24.405333 64 64 0 0 1-85.632-4.394667l-21.333333-21.333333a64 64 0 0 1 0-90.496l123.861333-123.904a64 64 0 0 1 90.538667 0l25.258666 25.258667a64 64 0 0 1 0 90.496l-9.941333 9.984a163.413333 163.413333 0 0 0-8.277333 8.917333c17.92 1.066667 35.2 10.197333 45.952 26.24a149.888 149.888 0 0 0 11.434666 14.848 72.405333 72.405333 0 0 1-10.666666 101.802667 64.554667 64.554667 0 0 1-89.642667-8.106667 91.648 91.648 0 0 0-14.933333-13.909333 59.093333 59.093333 0 0 1-22.912-39.808z"  horiz-adv-x="1024" />

    


  </font>
</defs>
</svg>
